<svg width="342" height="340" viewBox="0 0 342 340" fill="none" xmlns="http://www.w3.org/2000/svg">
<path d="M128.352 140.866C126.269 140.61 124.854 140.281 123.427 140.331C118.57 140.654 113.622 140.879 108.851 141.49C89.9473 144.318 71.8112 149.926 53.7493 156.202C46.353 158.726 39.0427 161.538 31.8304 164.258C22.6955 167.678 13.9166 171.869 5.76354 177.315C5.27993 177.585 4.78445 178.234 4.3068 178.314C3.54137 178.48 2.68995 178.359 1.93048 178.335C1.95428 177.575 1.79415 176.62 2.19174 176.062C2.79706 174.941 3.78214 173.832 4.57137 172.906C8.49375 169.038 13.1458 166.143 18.0738 163.541C30.7215 157.191 44.0811 152.383 57.5207 148.053C73.5563 142.759 89.672 137.943 106.384 135.331C112.495 134.382 118.687 133.911 124.97 133.538C127.255 133.419 129.613 133.968 131.782 134.511C136.303 135.793 137.899 139.454 136.053 143.768C135.332 145.551 134.139 147.224 133.326 148.909C131.902 151.905 130.386 154.803 129.151 157.806C128.43 159.589 128.175 161.671 128.115 163.57C128.014 166.798 128.928 167.967 132.04 168.729C133.926 169.169 135.911 169.516 137.816 169.386C143.903 169.196 150.083 169.105 156.091 168.438C180.018 166.052 203.858 163.378 227.877 161.09C249.416 159.105 270.919 158.258 292.581 158.367C293.721 158.403 294.768 158.341 295.815 158.279C296.005 158.284 296.201 158.101 296.978 157.555C295.477 156.938 294.35 156.522 293.125 156.199C289.075 155.026 284.83 154.038 280.78 152.866C279.273 152.438 277.576 152.005 277.642 149.917C277.781 148.496 279.434 147.312 281.707 147.573C286.533 148.2 291.354 149.016 296.175 149.832C298.631 150.289 300.886 151.12 303.239 151.859C311.987 154.699 320.754 156.97 329.929 158.303C332.012 158.558 334.089 159.003 335.97 159.632C339.449 160.787 340.12 163.658 338.034 166.539C336.743 168.304 335.004 169.2 332.714 169.508C330.712 169.73 328.697 170.332 326.689 170.745C315.575 173.627 304.553 176.608 293.348 179.392C290.378 180.155 287.242 180.151 284.192 180.436C282.857 180.584 281.344 180.347 280.822 178.81C280.3 177.273 281.004 176.06 282.075 175.238C283.819 174.152 285.564 173.067 287.486 172.367C290.462 171.415 293.622 170.658 296.591 169.896C297.455 169.638 298.416 169.288 299.763 168.76C297.514 167.74 295.885 168.164 294.275 168.018C270.523 167.844 246.638 168.901 222.999 171.2C200.885 173.358 178.765 175.706 156.651 177.863C150.263 178.518 143.704 178.598 137.242 178.585C134.107 178.582 130.891 178.101 127.882 177.057C122.044 175.353 119.033 171.363 118.752 165.177C118.503 160.988 119.394 156.835 121.222 153.091C122.75 149.813 124.56 146.638 126.37 143.464C126.951 143.102 127.545 142.361 128.352 140.866Z" fill="black"/>
</svg>
