<svg width="560" height="550" viewBox="0 0 560 550" fill="none" xmlns="http://www.w3.org/2000/svg">
<path d="M205.748 454.292C182.143 437.973 159.159 421.304 135.554 404.985C118.556 393.126 102.179 380.916 86.6949 367.383C74.5535 356.876 62.3265 345.926 53.4786 332.25C38.8463 310.047 34.8432 285.774 41.5477 261.024C47.5304 238.484 62.9336 223.073 86.6782 217.529C99.8791 214.499 113.508 213.683 126.959 213.132C157.489 211.784 187.248 206.448 215.893 195.353C235.138 187.928 252.369 177.217 269.079 164.999C276.723 159.373 282.167 151.878 288.669 145.095C299.714 133.291 312.602 123.886 326.104 115.281C337.563 107.992 351.02 106.291 364.464 106.891C372.6 107.375 379.47 112.013 385.541 117.266C392.226 123.319 397.396 131.046 400.438 139.647C407.042 158.358 410.724 177.407 412.635 196.801C415.06 218.853 418.728 240.204 422.924 261.911C426.272 278.037 428.469 294.158 427.566 310.883C426.039 342.209 425.483 373.805 421.921 405.298C419.381 429.006 412.776 451.898 398.494 471.917C388.498 485.586 376.746 497.298 360.08 502.612C345.365 507.317 330.5 507.683 315.478 504.863C292.857 500.764 271.586 492.955 251.13 482.228C235.438 473.562 220.104 464.367 205.748 454.292Z" fill="#CFE1ED"/>
</svg>
