<svg width="818" height="910" viewBox="0 0 818 910" fill="none" xmlns="http://www.w3.org/2000/svg">
<path d="M245.7 343.7C250 340.3 254.7 337.4 259.5 334.6C260.3 334.1 261 333.7 261.7 333.3C274.7 326.2 287.8 319.1 301.5 313.4C310.7 309.5 320.6 308 330.4 306.6C335.4 305.9 335.2 306 336.2 301.3C337.2 296.6 339.9 292.6 343.1 289.2C348.3 283.8 353.5 278.3 359.6 273.7C361.8 272 362.5 270.3 362.5 267.7C362.5 260.1 364.5 252.8 366.5 245.6C367.7 241.2 367.7 237.1 365.5 232.6C361.3 224.1 358.2 215.2 354.8 206.3C353.4 202.7 351.9 200.8 347.4 201.5C341.5 202.3 336.7 199.8 333.3 194.4C328 185.9 324.1 176.9 322.2 167C321.5 163.6 321.5 160.1 322.1 156.7C323.3 150.1 327.5 145.4 335.2 146.2C336.7 146.3 338.2 146.5 339.7 146.6C339.7 145.6 339.8 144.5 339.8 143.5C336.8 142.8 335 140.8 333.8 138.1C332.1 134.4 330.4 130.7 329.2 126.8C328.2 123.3 323.9 116.7 321.6 108.5C321 108.5 320.3 108.3 319.8 108.5C305.8 113.5 292 119.1 278.7 125.6C262.5 133.5 246.6 142 231.3 151.7C221.1 158.1 211 164.7 201.3 171.9C185 183.8 169.4 196.8 154.7 210.6C134.8 229.4 116.3 249.6 99.7 271.4C93.4 279.6 87.5 288 81.6 296.6C71.4 311.6 62.1 327 53.7 343.1C48.8 352.4 44.4 362.1 39.9 371.6C32.1 388.2 25.7 405.4 20.4 422.8C14.3 442.8 9.40002 463 5.90002 483.7C2.00002 507 0.700012 530.5 0.700012 554C0.700012 566.9 0.699988 579.9 2.29999 592.8C4.39999 610.6 6.90002 628.2 11.4 645.6C15.1 660 19.1 674.2 24.4 688.2C29 700.5 34.4 712.5 40.3 724.2C45.9 735.3 52.4 746 59.2 756.5C67.8 769.7 77.3 782.2 87.6 794C107.3 816.5 129.8 835.9 154.8 852.2C170.1 862.2 186.2 870.9 203 878.2C208.2 880.4 213.5 882.2 218.6 884.5C229.2 889.4 255.1 896.5 265.6 898.2C259 869.7 258.1 795.9 264.4 757.4C268 731.5 271.9 705.7 273.9 679.7C273.9 679 273.2 676.7 272.2 673.8C270.8 673.3 269.5 672.8 268.2 672.4C268.2 672.6 268.1 672.7 268.1 672.9C259.3 673.8 252.3 669.2 245.5 664.8C230.9 655.6 218.6 643.6 207.8 630.3C200.3 621 194.7 610.2 189.4 599.5C187.8 596.2 188.3 592.8 187.8 589.5C187.2 588.5 186.4 587.9 185.4 587.5C182.5 591.5 180.3 591.8 177.6 588.3C174.9 584.7 172.6 580.9 171.2 576.5C167 563.9 168.3 551.4 170.7 538.8C172.1 531.3 175.5 524.6 178.5 517.7C178.7 517.2 179 516.5 179.3 516.1C180.8 513.2 183.6 507.1 183.1 503.7C182 496 180.8 488.3 180.5 480.6C179.8 462 182 443.6 186.6 425.6C188.6 417.9 190.3 410.1 192.7 402.5C199.1 382.3 219.4 349.3 231.7 341.6C232.8 340.7 234.5 340.4 235.9 340.2C237.4 340 239.1 340.3 239.8 341.8C240.6 343.5 239.8 344.9 238.4 346.2C235.2 349.2 231.1 351.4 229.4 355.9C230.3 356.1 231.3 356.3 232.2 356.5C234.4 352.7 239.7 348 245.7 343.7Z" fill="#698DBE"/>
<path d="M817.2 442.5C816.7 428.5 817.3 414.5 815.2 400.5C813.4 388.6 813.1 376.4 810.6 364.6C808.3 353.9 806.2 343.1 803.2 332.5C798.7 316.7 793.3 301.3 786.9 286.2C781 272.3 774 258.9 766.3 245.9C760.1 235.5 753.4 225.5 746.2 215.9C735 200.9 722.6 187.1 708.9 174.2C698.7 164.6 688.2 155.4 676.9 147.2C663.1 137.3 648.8 128 633.6 120.4C617.2 112.2 594.2 105.1 580.4 100.8C566.4 96.3001 530.9 89.0001 528.5 89.1001C525.9 102.3 523.3 115.6 520.7 128.8C520.5 130.1 520.1 131.3 519.8 132.6C519.1 135.4 517.2 134.9 515.3 134.2C512.3 136.1 513.8 138.9 514 141.4C526.5 142.2 529.6 151.4 531 162.1C532.3 172 528.7 181.3 525.1 190.3C523.5 194.3 520.3 198 515.6 199.4C512.2 200.3 512.4 201.5 511.6 205.7C509 220.5 504.7 244.6 490.1 264.9C488.2 267.6 486.5 269.6 486.3 272.7C485.9 278.5 485.6 284.3 485 290.1C484.6 293.6 486.1 295.5 488.6 297.7C501.1 308.6 515.5 317.1 527.8 328.2C533.4 333.3 537.3 339.4 539.6 346.4C540.6 349.5 541.9 351 544.9 351.9C554 354.6 562.8 357.9 571.4 361.9C581.3 366.6 587.3 374.4 589.8 384.7C592.8 397.3 594.8 410.1 595.3 423.1C596.6 452.5 596.4 481.9 594.8 511.2C593.9 526.6 597 541.1 600.3 555.8C600.5 556.9 600.9 557.9 601.1 558.9C605.2 582 610.7 604.9 616.1 627.8C618.1 636.2 620 644.6 622 653C623.4 658.7 625.6 663.9 629 668.8C633.1 674.6 634.2 681.9 636.7 688.6C638.5 693.4 639.7 698.5 641.1 703.5C642.8 709.8 640.8 715.2 636.2 719.3C633.8 721.5 633.4 723.3 634.5 726C636.6 731.3 637.2 736.9 638.1 742.4C640.7 757.5 643.4 772.5 646.1 787.6C646.2 788.1 646.6 790.2 647 792.9C653.3 789.3 659.6 782.8 664.6 778.2C677.4 766.3 689.5 753.7 700.8 740.4C710.4 729.1 719.8 717.5 728.2 705.3C735.4 694.9 742.6 684.4 749.1 673.4C754.2 664.9 759.2 656.4 763.8 647.6C771.1 633.7 777.7 619.4 783.5 604.8C786.6 597.2 789 589.4 792 581.8C797.7 567.3 801.5 552.3 805.3 537.3C808.7 524.2 811.6 510.8 812.8 497.3C814.4 479 817.8 460.9 817.2 442.5Z" fill="#698DBE"/>
<path d="M264.3 757.4C258 795.9 259 869.7 265.5 898.2C267.2 905.5 269.2 909.8 271.6 909.8C273.7 909.5 273.6 906.8 273.8 904.9C273.9 904 273.8 903.2 273.8 902.3C273.7 881.8 274 861.3 273.5 840.7C273 818.5 273.1 796.2 275.1 774C276.1 762.6 277.2 751.3 279.5 740C281.5 730.5 281.7 720.7 282.7 711.1C283 708.2 282.6 705.2 284.5 701.8C287.4 707.3 289.9 712.2 292.7 716.9C297.8 725.7 303.7 733.8 310.4 741.4C322.6 755.3 337.8 758.1 355 753.2C355.8 753 357 752.7 357.2 752.1C358.6 748 361.9 749.3 364.7 749.2C367.1 749.1 369.5 749.3 371.8 748.9C375.6 748.2 379.6 747.4 380.7 742.8C381.2 740.9 382.7 740.4 384.3 739.7C387.6 738.3 390.8 736.8 393.3 733.7C399.3 725.9 398.7 718 395 709.6C392.8 704.7 390.2 700 387.1 695.6C385.1 692.7 384.7 690.7 387.8 688C392.2 684.3 393.4 679 392.8 673.3C392.4 669.2 392 665 390.5 661.3C387.4 653.5 386.2 645.1 382.8 637.3C381.4 634 381.3 630.2 380.4 626.6C380 624.9 380.2 623.5 381.7 622.7C387.3 619.9 408 605 410.9 575.7C411.5 568.4 411.5 561 410.8 553.7C410 546.5 410 539.1 405.8 532.6C401.4 525.9 395.8 525 389.8 530.6C385.8 534.4 383.7 539.4 381.8 544.4C379.6 550.1 376.7 555.4 374.3 560.9C371.5 567.3 368.8 568.2 361.9 566.6C359.2 566 356.4 565.3 353.6 565.2C339.8 564.7 332.4 572.9 329.4 583.3C329.1 584.4 328.9 585.6 329.7 586.4C330.7 587.4 332.2 587.1 333.2 586.4C335.6 584.6 338.6 583.8 341 581.9C345.6 578.4 350.8 576.6 356.7 578C358.6 578.4 360.5 578.8 362.4 579C367.9 579.6 373 578.7 377.3 574.6C381.5 570.6 383.9 565.7 386.3 560.7C389.1 554.9 391.7 549 394.4 543.1C394.9 542.1 395.6 541.2 396.8 541.2C398.2 541.2 398.3 542.6 398.4 543.6C399.1 548.5 399.8 553.4 400.3 558.3C402.3 578.1 398.3 596 383 610.1C381.5 611.5 381.2 614 378.6 614.3C377.1 612.8 377.7 611 377.4 609.3C376.7 605.7 376.1 602.1 375.2 598.6C374.7 596.6 373 595.3 370.8 595.4C368.8 595.4 367.8 596.9 367.2 598.6C366.6 600.4 365.7 602.3 365.7 604.2C365.4 617.9 367.4 631.2 372 644.1C375.4 653.6 379.4 663 381.8 672.8C382.5 675.6 382.4 678.4 381.2 681C380.2 683.1 378.8 683.4 377.4 681.4C374.5 677.4 371.8 673.3 369 669.3C363.4 661.2 357.8 653 351.4 645.5C349.1 642.8 345.7 641.7 343 639.5C341.9 638.7 340 638.5 338.8 639.7C337.8 640.7 338.3 642.1 338.9 643.3C339.8 645 340.3 646.9 341.3 648.6C349.4 662 357.3 675.5 366.8 688C372.9 696 378.8 704.1 384.2 712.7C385.9 715.4 386.7 718.2 386.6 721.3C386.4 728.6 380.8 731.8 374.6 728.1C371.6 726.4 368.9 724.3 366.5 721.8C357.5 712.6 349.2 702.7 341 692.9C336 687 331.2 681 326.6 674.7C322.6 669.2 319.1 663.2 313.9 658.6C312.1 657 310.3 653.9 307.5 656.2C305.3 658 307.2 660.4 308.3 662.6C313.8 673.3 320 683.5 327.5 693C336.4 704.2 345.5 715.4 355.1 726.1C358.5 730 363.4 732.5 366.3 737.8C353.2 737.8 343.6 731.2 335.2 723.1C325.5 713.7 316.9 703.3 309.4 691.9C307.5 689 305.4 686.3 302.9 683.9C301.7 682.8 300 680.7 297.9 682C295.9 683.3 297.1 685.6 297.3 687.4C297.4 688.2 298 689 298.2 689.8C299.4 694.2 302 698 304.2 701.9C312.2 716.7 323.2 728.8 335.9 739.5C338.4 741.6 341.9 742.4 344.9 745.8C335.9 747.4 329.4 743.8 323.5 739.2C318.8 735.5 315.1 730.6 311.6 725.7C301.7 711.6 293.7 696.5 286.5 680.8C282.8 672.8 278.8 665 274.5 657.4C273.7 655.9 272.4 654.7 271.2 653.5C270 652.3 268.5 652.4 267 653C265.4 653.7 265.7 655 265.7 656.3C265.7 657 269.6 666.9 271.9 673.6C272.9 676.5 273.6 678.8 273.6 679.5C271.8 705.7 267.8 731.5 264.3 757.4Z" fill="#0D0E0E"/>
<path d="M207.7 630.2C218.5 643.5 230.8 655.5 245.4 664.7C252.2 669 259.2 673.6 268 672.8C268.1 672.6 268.1 672.5 268.1 672.3C268.6 670.4 267.7 669.3 266 668C258.3 662.2 250.5 656.6 243.3 650.1C231.7 639.5 220.6 628.6 211.6 615.6C206.6 608.4 202.2 600.6 194.7 595.5C192.2 593.8 192.9 592 193.7 589.9C196.2 583.5 199.3 577.4 200.8 570.6C203.5 558.4 207 546.5 212.4 535.2C217.5 524.4 230.7 515.4 244.3 519.6C254.2 522.6 261.4 529.1 268.5 536C277.2 544.4 284.3 554.1 292 563.4C295.8 568 299.7 572.6 300.5 578.8C300.8 580.7 302.5 581.6 303.1 583.2C303.6 584.7 304.9 585.1 306.3 584.5C307.5 584 308.4 582.9 308.2 581.4C308.1 580.8 307.8 580.2 307.7 579.5C306.3 569.2 305.2 559 306.7 548.6C308.8 533.9 311.1 519.3 314.5 504.8C319.1 484.5 321.1 463.9 317.7 443.1C316.4 435.3 313.1 428.9 307.1 423.9C306.3 423.2 305.3 422.4 304.2 423.2C303.2 423.9 303.5 425 303.9 426.1C305.5 430.4 306.2 434.8 306.6 439.4C308.4 462.2 306.5 484.5 301.4 506.8C298.1 521.3 296.4 536.2 295.9 551.1C295.9 552.4 296.8 554.1 294.7 555C291.7 550.8 288.8 546.6 285.9 542.4C278 531.1 269 520.9 257.1 513.4C239.2 502.1 216.2 506.3 204.2 526.5C201.3 531.4 199.8 536.8 197.9 542C192.4 557.5 188.6 573.3 187.4 589.7C187.9 593 187.3 596.4 189 599.7C194.6 610.1 200.1 620.9 207.7 630.2Z" fill="#0D0E0E"/>
<path d="M238.4 346C239.9 344.6 240.6 343.3 239.8 341.6C239.1 340.1 237.4 339.8 235.9 340C234.4 340.2 232.7 340.5 231.7 341.4C219.4 349 199.1 382.1 192.7 402.3C190.3 409.9 188.5 417.7 186.6 425.4C182 443.5 179.8 461.8 180.5 480.4C180.8 488.2 182 495.8 183.1 503.5C183.6 506.9 180.8 512.9 179.3 515.9C178.9 516.8 178.5 517.4 178.5 517.5C175.4 524.4 172.1 531.1 170.7 538.6C168.3 551.2 167 563.7 171.2 576.3C172.7 580.7 174.9 584.5 177.6 588.1C180.3 591.7 182.5 591.4 185.4 587.3C184.4 584.5 183.2 581.7 182.5 578.8C180.8 571.5 178.5 564.2 179.5 556.5C181 544.9 182.5 533.4 184 521.8C184.1 520.7 183.7 519 185.8 518.9C189.1 523.1 187.4 529.9 192.5 533.5C194.6 531.4 194.4 528.9 194.5 526.7C194.9 520.4 194.7 514.2 194.2 507.9C193.4 497.4 192.4 486.8 192.3 476.2C192.1 458.4 195 441 198.5 423.6C203.6 398.4 213.8 375.8 229.4 355.5C231.1 351.3 235.2 349 238.4 346Z" fill="#0D0E0E"/>
<path d="M421 17.4999C430.5 12.2999 441 11.1999 451.6 11.0999C460.8 10.9999 468.1 15.2999 474.5 21.3999C478.8 25.4999 482.4 30.3999 486.8 34.3999C491.6 38.7999 496.9 42.1999 503.8 42.8999C508.8 43.3999 513.7 43.0999 518.6 42.7999C520.7 42.6999 523 43.1999 524.8 40.5999C521.5 36.6999 516.8 36.0999 512.6 34.7999C505.6 32.5999 498.7 30.3999 493.5 24.7999C490.9 21.9999 488.3 19.0999 485.6 16.3999C478.8 9.29993 471.2 3.69993 461.2 1.79993C447.4 -0.800072 434.8 3.19995 422.3 8.09995C420.1 8.99995 418.5 10.7999 416.9 12.5999C415.7 13.9999 415.5 15.8999 416.8 17.3999C418 18.5999 419.6 18.2999 421 17.4999Z" fill="#0D0E0E"/>
<path d="M421.2 255.3C424.9 261.4 430.1 265 437.3 264.7C447.4 265.7 456.5 256.7 458.3 248.7C459.3 244.3 460.3 239.9 461.3 235.5C462.7 228.8 460.2 226 453.6 226.7C452.1 226.8 450.6 227.2 449.2 227.6C440.6 229.6 431.9 230.9 422.9 229.6C419.7 229.1 416.6 228.3 413.5 227.3C411.6 226.7 409.3 227.2 409.8 229.3C410.7 233 418.2 250.3 421.2 255.3ZM451.7 235.6C450.1 241 451 250 444.8 254.8C439.8 259.1 433.9 257.4 428.7 249.9C426.6 246.8 423.5 241.7 421.6 237.3C439.8 239.7 446.2 235.6 451.7 235.6Z" fill="#0D0E0E"/>
<path d="M503.2 79.6C505.3 77.3 504.9 75.7 501.9 75.3C498.5 74.9 495.1 75 491.7 76C485 78.1 478.7 77.2 472.3 74.3C465.4 71.1 458 69.4 450.5 68.9C436.8 68 430 74 424.2 85.5C423.1 87.7 422.8 90.5 425.6 93.3C428.3 90.2 430.6 87.5 433 84.7C438.8 78.1 445.4 75.9 453.2 79.3C458.7 81.8 464.5 83.4 469.9 86C480.1 91.2 495.9 87.8 503.2 79.6Z" fill="#0D0E0E"/>
<path d="M276.7 353.6C269.3 351.1 261.7 351 254.4 355.1C259.4 358 264.6 359.9 269.6 362.1C283.1 367.9 293.6 376.7 300.8 389.6C303 393.4 304.7 397.7 308.1 400.8C309.1 401.7 310 403.7 311.7 402.3C313.1 401.2 314.9 400 313.8 397.5C313.1 395.9 312.9 394.2 312.5 392.5C307.7 373 295.6 360 276.7 353.6Z" fill="#0D0E0E"/>
<path d="M519.7 132.7C520 131.5 520.3 130.2 520.6 128.9C523.2 115.7 525.8 102.4 528.4 89.2001C528.3 88.3001 528.1 87.5001 528.1 86.6001C528.7 75.2001 525.9 64.5001 521.9 54.0001C521.2 52.2001 520.5 50.4001 519.6 48.7001C518.9 47.4001 517.6 47.2001 516.2 47.4001C514.7 47.6001 514.1 48.9001 513.9 50.2001C513.8 51.2001 513.9 52.3001 514.1 53.4001C515.4 61.7001 516.7 70.0001 518.2 78.3001C518.6 80.7001 518.7 83.0001 518.3 85.4001C515.7 101.6 513.9 117.9 515.2 134.4C517.1 135 519 135.5 519.7 132.7Z" fill="#0D0E0E"/>
<path d="M343.3 57.6998C351.3 53.1998 359.6 48.9998 364.6 40.5998C366.9 36.6998 368.7 32.5998 370.6 28.4998C373.5 22.2998 377.4 17.3998 385 16.3998C389.7 15.7998 394.3 14.9998 399.1 16.1998C401.1 16.6998 402.6 15.8998 403.2 14.0998C403.8 12.1998 401.9 11.8998 400.8 10.9998C397.2 7.99982 393 9.3998 389 8.7998C384.8 9.3998 380.6 8.39982 376.4 10.4998C370 13.5998 366 18.2998 362.4 24.1998C359.6 28.7998 357.3 33.5998 354 37.8998C349.7 43.6998 343.7 47.5998 338.9 52.6998C337.6 53.9998 334.8 54.7998 336.1 57.0998C337.3 59.1998 342.9 57.8998 343.3 57.6998Z" fill="#0D0E0E"/>
<path d="M333.7 138.2C334.9 140.9 336.7 142.9 339.7 143.6C341.2 142.5 340.9 141 340.9 139.5C340.4 127.6 337.7 116.2 332.2 105.6C329.9 101.2 329.1 96.6999 330.6 91.9999C331.9 87.9999 333.6 83.9999 335.1 79.9999C335.7 78.3999 336.9 76.6999 334.9 75.3999C333 74.0999 331 74.7999 329.7 76.3999C327.2 79.4999 324.6 82.5999 323.1 86.4999C319.2 94.1999 319.7 102 321.6 108.7C323.9 116.8 328.2 123.5 329.2 127C330.3 130.8 332 134.5 333.7 138.2Z" fill="#0D0E0E"/>
<path d="M439.8 202.6C438 201.8 436.8 203.1 436 204.2C434.9 205.7 435.2 207.7 436.2 209.1C437.4 210.8 439.2 212.1 441.5 212.4C449.7 213.7 456.3 207.6 456.4 198.7C456.8 192 453.8 186.9 448.5 183.5C445.8 181.8 444.9 180.2 445.1 177.4C445.2 175.5 445.2 173.5 444.9 171.6C444.6 169.3 443.1 168.2 440.7 168.8C439.4 169.1 438.7 170.3 438.2 171.6C436.6 176 436.7 180.5 437.3 185C437.8 188.3 440.4 190.1 443.1 191.6C444.3 192.3 445.2 193.2 445.6 194.4C446.6 197.1 447.4 199.9 445.6 202.5C444 204.9 441.8 203.5 439.8 202.6Z" fill="#0D0E0E"/>
<path d="M388.7 99.6998C392.8 96.1998 396.7 92.4998 398.8 87.3998C399.5 85.7998 400 83.8998 398.3 82.6998C396.5 81.3998 394.5 81.7998 393.2 83.5998C387.4 91.6998 378.8 96.1998 370.4 101C364.5 104.4 358.8 108.3 353.6 112.7C351.6 114.4 350 116.3 349.9 119.8C358.8 117.2 365.7 112.4 373.3 109C378.8 106.6 384.1 103.7 388.7 99.6998Z" fill="#0D0E0E"/>
<path d="M411.1 88.0997C412.8 87.8997 413.8 86.8997 414 85.0997C415.3 74.4997 420.9 65.9997 427.1 57.6997C429.1 54.9997 432.7 53.4997 433.6 49.5997C431.5 48.3997 429.8 48.6997 428.3 49.4997C424.3 51.4997 420.5 53.8997 417.6 57.3997C412.8 62.9997 409.3 69.1997 407.2 76.3997C406.2 79.7997 406.2 82.4997 408.1 85.4997C408.9 86.7997 409.1 88.2997 411.1 88.0997Z" fill="#0D0E0E"/>
<path d="M499.5 116.2C501.8 122.7 503.2 129.9 510.6 133.7C511 132.7 511.4 132.3 511.3 132C509.7 122.3 508.2 112.5 507 102.7C506.7 100.3 505.1 97.9 503.8 95.8C502.8 94.2 501 93.8 499.2 94.3C497.5 94.8 496.7 96.1 497.1 97.8C498.5 103.8 497.5 110.3 499.5 116.2Z" fill="#0D0E0E"/>
<path d="M391.8 140.9C392.2 140.9 392.7 140.9 393.1 140.8C401.7 139.5 410.2 136.2 419.1 139.9C421.4 140.9 423.1 138.6 422.5 136C421.9 133.6 420.6 131.7 418.1 130.9C415.2 130 412.3 129.2 409.2 129.3C404.9 129.3 400.7 130.3 396.5 131.4C393.3 132.2 391.5 134.7 389.5 136.9C388.7 137.8 388.7 138.9 389.1 140C389.6 141.3 390.8 140.8 391.8 140.9Z" fill="#0D0E0E"/>
<path d="M493 132.7C493.1 130.2 490.7 129.5 488.5 129C484.9 128.2 481.3 127.7 477.6 128C475.4 128 473.3 127.8 471.1 128C466.5 128.6 462.4 130.1 460.2 134.9C459.5 136.5 458.3 138 459.7 139.6C461.2 141.2 463.2 141.5 465 140.1C469.1 136.8 473.9 137.5 478.5 137.2C481.7 137 484.9 136.6 488.1 136C490.1 135.6 492.9 135.4 493 132.7Z" fill="#0D0E0E"/>
<path d="M474 159.5C469.9 163.1 468.7 174.2 472 178.7C474.5 182.2 477.5 182.4 480.6 179.2C483.3 176.4 484.6 173.2 484.5 169.8C484.7 166 484.2 162.8 482.1 160.1C479.9 157.5 476.5 157.3 474 159.5Z" fill="#0D0E0E"/>
<path d="M404.1 185.3C406.3 186.8 408 186.6 409.4 184.3C411.5 180.9 412.3 177.2 412.2 172.4C412.2 171.3 412.1 169.5 411.4 167.6C410.6 165.2 409.5 163.2 406.7 163.1C403.7 163 401.2 164.4 399.8 167C396.6 172.9 398.7 181.6 404.1 185.3Z" fill="#0D0E0E"/>
<path d="M510.5 182.7C514.3 180.2 516.1 176.4 516.9 171.9C517.2 168.4 515 166 512.3 167.1C509.6 168.2 504.3 177 504.6 179.9C505 183.2 507.7 184.5 510.5 182.7Z" fill="#0D0E0E"/>
<path d="M345.5 172.6C343.5 169.5 342.3 169.3 338.1 171C337.7 174.4 343.6 183.9 345.7 184.1C347 184.2 348.3 184 349.3 183C350.4 181.9 349.8 180.7 349.1 179.5C347.9 177.2 346.9 174.8 345.5 172.6Z" fill="#0D0E0E"/>
<path d="M638 742.4C637 736.9 636.5 731.3 634.4 726C633.3 723.3 633.7 721.4 636.1 719.3C640.7 715.1 642.7 709.7 641 703.5C639.7 698.5 638.4 693.5 636.6 688.6C634.1 682 632.9 674.7 628.9 668.8C625.5 663.9 623.2 658.6 621.9 653C619.9 644.6 618 636.2 616 627.8C610.6 604.9 605.2 582.1 601 558.9C600.8 557.8 600.4 556.8 600.2 555.8C596.9 541.1 593.9 526.6 594.7 511.2C596.3 481.9 596.5 452.5 595.2 423.1C594.6 410.1 592.7 397.3 589.7 384.7C587.2 374.4 581.2 366.6 571.3 361.9C562.7 357.9 553.9 354.6 544.8 351.9C541.7 351 540.5 349.5 539.5 346.4C537.2 339.4 533.3 333.3 527.7 328.2C515.4 317 501 308.6 488.5 297.7C486 295.5 484.5 293.6 484.9 290.1C485.5 284.3 485.9 278.5 486.2 272.7C486.4 269.6 488 267.5 490 264.9C504.6 244.7 508.9 220.5 511.5 205.7C512.2 201.5 512.1 200.4 515.5 199.4C520.2 198.1 523.4 194.3 525 190.3C528.6 181.3 532.2 172 530.9 162.1C529.5 151.5 526.5 142.2 513.9 141.4C508.8 144 504.6 147.5 502.5 153.1C502 154.3 501.2 155.6 502.5 156.6C503.6 157.4 504.9 156.9 506 156.1C507.5 154.9 509 153.6 510.6 152.6C514.9 149.7 517.9 150.8 519.3 155.7C519.8 157.3 520.1 159.1 520.2 160.8C520.6 167.5 519.5 174 517.6 180.5C515.8 186.6 513.3 190.9 506.5 192.1C502.8 192.8 502.1 195.1 504 198.4C504.9 200 505.8 201.2 505.3 203.1C502.6 211.9 502.1 221.1 498.9 229.8C494.6 241.4 490.2 252.4 481.2 261.4C472.1 270.5 462.6 278.5 450.5 283.1C448.6 283.8 446.2 284.2 446.2 287.5C447.1 291.2 465.3 282.7 475.2 278.5C475 282.7 474.7 286 474.6 289.4C473.9 307.1 473.9 324.8 479.8 341.8C482.6 349.9 485.9 357.8 491.5 364.5C492.3 365.4 493.5 366.3 492.9 368C491.7 368.3 490.5 368.7 489.2 368.9C487.5 369.1 485.8 369.3 484 369.3C467.8 369.9 452.3 366.2 437.1 361.1C434 360.1 432.8 357.9 431.8 355.2C428.8 347 424.8 339.2 421.2 331.2C421 330.7 420.5 330 420 329.8C414.6 327.4 411.3 322.2 406.5 318.9C401.4 315.4 397.1 310.8 392.5 306.6C383.4 298.1 374.3 289.7 364.3 282.3C361.8 280.4 361.5 278.9 364.2 277.1C366.3 275.8 366.9 274.2 367.5 272C369.7 264.9 372.2 257.9 374.8 250.3C379.6 255.4 382.4 261.3 386.6 266.1C392.5 272.8 398.7 278.6 406.8 282.5C416.1 287 425.1 286.9 436.3 289.2C437.9 289.5 439.3 289.3 439.8 288C440.3 286.7 438.2 286.1 437.3 285.6C433.2 283.3 429.1 282.2 424.6 280.6C417.7 278.2 411 275.4 404.9 271.2C394.6 264 388.1 253.5 381.3 243.4C371.2 228.2 364.1 211.4 356.5 194.9C355.4 192.6 354.8 189.6 351.8 188.7C350.1 189.9 352 193 348.7 193C343.3 193.1 335.5 180 335 178.5C333.6 174.7 326.1 159.7 333.1 155.1C333.7 154.7 334.6 154.6 335.3 155.2C338 157.3 340.7 159.5 343.4 161.5C346.2 163.5 348.1 163.1 349.5 160C349.9 159.1 343.8 146.4 334.8 146C327.1 145.7 322.9 149.9 321.7 156.5C321.1 159.9 321.1 163.4 321.8 166.8C323.7 176.6 327.6 185.7 332.9 194.2C336.3 199.6 341.1 202.1 347 201.3C351.5 200.7 353.1 202.6 354.4 206.1C357.8 214.9 360.9 223.9 365.1 232.4C367.3 236.9 367.4 241 366.1 245.4C364.1 252.7 362.1 259.9 362.1 267.5C362.1 270 361.4 271.8 359.2 273.5C353.2 278 347.9 283.5 342.7 289C339.5 292.4 336.8 296.4 335.8 301.1C334.8 305.8 335 305.6 330 306.4C320.2 307.9 310.4 309.3 301.1 313.2C287.4 319 274.3 326 261.3 333.1C260.6 333.5 259.9 333.9 259.1 334.4C255.1 336.7 250 340 245.3 343.5C239.4 347.8 234 352.5 231.8 356.1C230.7 357.9 230.4 359.5 231.4 360.5C232.4 361.7 233.6 360.2 234.6 359.3C235.5 358.5 236.8 358.1 238 357.5C251.4 350.3 264.7 342.8 278.3 336C288.3 331.1 298.3 326.1 308.8 322.2C317.5 319 326.5 317 335.6 315.1C338.5 314.5 340.6 314.7 342.3 317.3C345.4 321.9 349 326.3 351.7 331.1C359.6 345.2 367.7 359.1 376.7 372.4C379 375.8 380.9 380 385.2 381.8C388.4 383.2 389.9 382.4 390.2 378.8C390.9 372.1 392.6 365.9 396.4 360.2C399.3 355.9 402.2 351.6 405.3 347.5C408.2 343.6 410.5 338.6 415.9 337.1C417.8 339.7 419.1 342.3 420 345.2C424.4 359.8 428 374.7 430.7 389.7C434.5 410.9 437.9 432.2 439.2 453.7C440 466.2 440.3 478.7 441.5 491.2C442.7 503.5 441 515.8 440.7 528.1C439.8 563.5 437 598.9 435.6 634.3C434.5 660.7 434.6 687 436.3 713.3C436.8 720.6 437.9 727.9 438.4 735.2C439.1 745.8 441.5 756 443.1 766.5C444.5 775.7 445.1 785 446.8 794.1C449.3 808.1 451.9 822 455.2 835.8C457.5 845.7 460.6 855.2 463.5 864.9C464.2 867.4 465.2 869.5 467.6 870.6C469 869.2 468.8 867.8 468.5 866.7C466.4 857.5 466.2 848 464.4 838.7C461.7 825.4 460.3 811.9 458.7 798.4C456.9 783.9 455.7 769.3 453.1 754.8C450.6 741 450 726.9 449.1 712.9C446.8 677.5 447.7 642.1 449.2 606.6C451 563.2 454.2 519.9 451.7 476.4C450.3 452.3 447.6 428.3 443.6 404.5C441.9 394.3 439.3 384.3 437.2 374.2C436.5 370.7 437.7 369.5 440.9 371.2C446.6 374.2 452.8 375 458.9 376.3C468.4 378.3 478 379.4 487.7 376.8C490.7 376 493.8 374.7 497.1 375.3C497.5 380.8 497.5 381 492.6 381C482.4 381 472.3 380.9 462.1 380.8C460.4 380.8 458.6 380.9 456.9 381C455.5 381.1 454.2 381.6 454 383.1C453.8 384.5 454.8 385.4 456.2 385.9C461 387.7 466 389.1 471 390.1C479.2 391.6 487.5 391.7 496 390.8C496 396.5 496.1 401.6 496 406.8C495.6 432.1 499.9 457 502.8 482.1C504.8 499.7 506.7 517.3 507.7 534.9C508.9 556.5 507.9 578.1 506.2 599.7C504.6 620.6 504.2 641.6 505.1 662.5C505.8 678.2 517.1 757.4 518.2 764.8C520.2 778.4 523.7 791.7 527.4 804.9C528.6 809.2 530.9 813.2 532.6 817.3C533.1 818.6 533.8 819.6 535.7 819.3C537.8 815.8 530.5 787 528.6 775.5C527 765.8 526.3 755.9 524.9 746.1C524.1 740.6 518.4 698.4 517 682.7C515 661.8 513.9 640.9 514.5 619.9C515.1 602 516.2 584.1 516.7 566.2C517.4 543.1 516 520 514.3 497C513.3 484.1 510.6 471.5 509.4 458.6C508.5 448.5 507.4 438.4 506.3 428.4C505 415.7 503.4 403.1 504.7 390.3C505.1 386 507.9 383.5 510.3 380.6C511.8 378.9 513 380.4 514.1 381.3C516.9 383.8 519.8 385.8 523.7 385.9C526.9 386 529.3 385.1 530.1 381.8C531.8 374.7 536.3 368.6 537.8 361.4C538.8 356.9 539.7 356.4 544 358.8C550.8 362.6 558.1 365.2 565 368.7C572.2 372.3 577.7 377.5 579.3 386C580.3 391.3 581.8 396.5 582.6 401.8C584.3 413.4 584.6 425 584.7 436.7C584.9 457.9 585 479 583.4 500.2C582.2 516.8 582.1 533.4 580.8 550C579.1 571.5 578.7 593.2 578.7 614.8C578.7 643.8 577.2 672.7 575.7 701.6C574.2 731.4 572.9 761.2 573.1 791C573.1 798.5 576.6 817.7 579.2 817.4C581.3 817.1 582.5 809.5 582.6 807.5C583.1 800.4 583.9 793.3 584 786.2C584.2 775.4 584.8 764.6 585.4 753.8C585.5 752 585 750.3 587.4 748.9C598.3 743 609 736.7 619.8 730.6C621.3 729.8 622.5 728.5 624.6 728.8C624.8 729.3 625.3 729.8 625.4 730.4C626.3 743.8 629.8 756.8 631.4 770.1C632.4 778.5 635.1 786.5 637.6 794.5C638.7 798.1 640.9 801.4 642.9 804.7C643.6 805.9 644.8 807.3 646.6 806.5C647.8 806 646.8 798.3 646 792.8C645.6 790.2 645.2 788.1 645.1 787.5C643.3 772.5 640.6 757.4 638 742.4ZM384.2 365.3C381.1 363.8 348.2 309.6 344.8 305.3C343.3 303.4 344.1 301.3 345.2 299.3C347.5 295.1 351.1 291.9 354.3 288.6C356.3 286.5 366.5 295.7 371.8 301.1C383 312.6 395.1 323 409 331.8C397.7 341.4 390.2 352.6 384.2 365.3ZM507.7 370C507.3 366.8 507.6 364.3 508 361.8C509 355.2 508.8 348.4 508.9 341.8C508.9 340.5 508.7 339.2 508.5 337.9C508.2 336.6 507.6 335.5 506 335.5C504.7 335.5 504.2 336.5 503.9 337.5C503.6 338.3 503.3 339.2 503.3 340C502.9 349.1 501.6 358 498.9 367C490.6 347.2 483 327.4 485.1 305.2C487.3 305 487.9 307.4 489.1 308.6C499.3 318.9 511.9 326.1 523.1 335.1C526 337.4 528.4 339.8 530.3 342.9C521.3 350.5 516.5 361.4 507.7 370ZM523.3 373.9C522.9 374.7 522.7 376.2 521.2 375.3C520.1 374.7 518.8 374 519.1 372.4C519.2 371.8 519.5 371.1 519.9 370.7C525.4 364.1 528.6 356.2 532.7 348.5C532 358.1 527.4 365.9 523.3 373.9ZM591.4 568.5C594.4 575.2 595.3 581.5 596.6 587.8C599 600.2 601.6 612.7 604.5 625C607.8 638.6 611.5 652 615.1 665.5C617.4 674 616.8 676.7 609.9 681.6C603.2 686.4 596.1 690.7 587.9 696C591.1 653 589.5 611.1 591.4 568.5ZM625.9 713.9C617.7 720.2 608.5 724.8 599.4 729.5C595.2 731.6 592 735 587.9 737C586.2 735.6 586.8 734 586.8 732.6C587 726.1 587.6 719.7 587.3 713.2C587.1 707.9 589.6 705 593.8 702.6C598.8 699.8 603.7 696.7 608.6 693.7C614 690.4 619.7 687.4 623.7 680.4C626.4 688.7 628.6 695.1 630.5 701.6C632.4 708.2 631.4 709.7 625.9 713.9Z" fill="#0D0E0E"/>
<path d="M352.1 155.5C354.3 155.5 356.5 151.2 360.7 142.5C362.3 139.3 363.5 136.9 364.1 133.5C364.6 130.8 364.6 128 364.1 125.2C363.7 123 362.5 120.9 360.1 120.8C359.5 120.8 359 120.9 358.6 121.1C357 121.9 356.6 124 356.5 124.6C355.1 131.2 349.8 136.5 349.8 148.1C349.9 150.9 349.9 155.4 352.1 155.5Z" fill="#0D0E0E"/>
</svg>
