<svg width="57" height="120" viewBox="0 0 57 120" fill="none" xmlns="http://www.w3.org/2000/svg">
<path d="M24.0058 101.016C25.147 97.5252 27.3152 95.2428 29.027 92.6918C29.5976 91.8863 30.1682 91.215 30.6247 90.5437C31.3094 89.3353 31.5376 88.127 30.8529 86.7844C30.1682 85.4418 29.027 85.039 27.8858 85.4418C26.7447 85.8446 25.4894 86.3816 24.5764 87.3214C22.8647 89.0668 21.1529 90.9465 19.6694 92.8261C14.5341 99.1363 9.51291 105.447 3.12232 109.877C2.43761 110.414 1.7529 111.085 1.29643 111.757C-0.187099 114.173 0.497608 117.261 2.77996 118.47C3.57878 118.873 4.60585 119.141 5.5188 119.141C15.2188 119.544 24.8047 119.141 34.2764 116.322C35.76 115.919 37.2435 115.382 38.727 114.576C39.7541 114.039 40.667 113.234 41.4658 112.294C42.3788 111.22 42.9494 109.877 42.3788 108.266C41.8082 106.789 40.667 107.058 39.64 107.058C38.0423 107.058 36.5588 107.326 34.9611 107.46C33.9341 107.595 32.907 107.729 31.9941 107.863C31.88 107.595 31.7658 107.46 31.6517 107.192C32.3364 106.521 32.907 105.849 33.5917 105.312C38.0423 101.687 42.0364 97.5252 45.5741 92.5576C56.3011 77.5204 59.3823 60.3351 55.1599 41.5387C52.0788 27.8441 45.9164 16.2977 36.5588 7.30231C34.7329 5.55693 32.6788 4.08007 30.6247 2.6032C29.7117 1.9319 28.5705 1.39485 27.4294 1.12633C26.4023 0.857813 25.2611 0.72357 24.6905 2.06617C24.12 3.40877 24.6905 4.48285 25.4894 5.28841C27.3152 7.16805 29.027 9.04771 30.8529 10.9274C37.2435 17.6404 42.0364 25.5617 45.3458 34.8257C54.3611 59.9323 47.5141 84.7705 26.8588 99.4048C25.8317 100.21 24.9188 100.613 24.0058 101.016Z" fill="black"/>
</svg>
