<svg width="451" height="373" viewBox="0 0 451 373" fill="none" xmlns="http://www.w3.org/2000/svg">
<path d="M199.153 346.562C208.009 345.26 216.397 342.634 224.863 340.463C233.754 337.984 242.878 335.464 251.458 332.571C270.396 326.008 289.334 319.445 306.713 309.407C324.092 299.369 340.657 288.77 356.481 276.661C364.702 270.319 372.459 264.057 379.787 256.699C388.541 247.923 395.396 237.838 400.079 226.258C407.716 206.908 411.133 186.651 414.317 166.435C416.513 151.54 417.974 136.539 417.267 121.446C417.096 116.325 417.156 111.165 415.825 106.246C415.041 103.105 414.489 99.9232 414.904 96.8079C414.979 95.8587 414.821 94.9496 414.663 94.0406C410.27 75.6073 405.22 57.5221 394.103 41.66C384.579 28.0964 372.587 16.8339 355.548 12.2993C345.286 9.63203 335.19 10.6813 325.218 13.8161C309.138 18.9468 295.353 27.659 282.269 37.6541C272.967 44.6522 265.101 53.0397 257.506 61.6142C248.485 71.6068 240.006 81.9733 231.256 92.1529C230.485 93.2229 229.715 94.2929 228.945 95.3629C215.656 113.821 202.638 132.466 189.038 150.51C178.944 163.966 167.182 176.072 154.295 187.204C144.919 195.151 134.999 202.724 124.419 209.242C116.85 213.832 108.852 217.327 100.504 220.18C85.6631 225.564 71.4446 231.776 58.3951 240.595C49.4387 246.831 41.6469 254.269 38.2378 264.926C36.2861 271.585 35.7659 278.23 38.1483 285.074C40.1015 290.821 41.8227 296.609 44.24 302.276C51.8027 319.691 64.8809 331.702 82.087 339.953C98.7108 347.603 116.328 351.335 134.592 351.911C142.757 352.133 151.228 351.366 159.546 351.093C168.56 350.699 177.649 349.357 186.895 348.923C191.111 348.426 194.976 347.287 199.153 346.562Z" fill="#CFE1ED"/>
</svg>
