<svg width="313" height="193" viewBox="0 0 313 193" fill="none" xmlns="http://www.w3.org/2000/svg">
<path d="M264.018 129.812C259.425 134.267 254.272 137.866 249.347 141.712C244.061 145.662 238.65 149.726 233.26 153.314C221.26 161.154 209.26 168.995 195.933 174.396C182.605 179.798 169.308 184.486 155.46 188.078C148.237 189.922 141.261 191.537 133.84 192.418C124.982 193.478 116.193 192.873 107.484 190.364C93.0126 186.065 79.85 178.961 66.8112 171.742C57.2699 166.339 47.9862 160.469 39.5895 153.325C36.7113 150.941 33.7093 148.67 31.4504 145.716C29.9792 143.867 28.3841 142.132 26.4075 140.977C25.8279 140.595 25.3721 140.099 24.9164 139.604C16.193 128.871 7.95523 117.921 3.63146 104.512C-0.0583652 93.0371 -1.3503 81.1853 3.42667 69.4679C6.34041 62.4395 11.3248 57.1659 17.4586 52.8938C27.3924 46.0395 38.3961 42.0899 49.8357 39.112C57.9063 36.9466 66.1551 36.2188 74.394 35.7288C84.0696 35.0606 93.7254 34.8681 103.391 34.4378C104.342 34.4775 105.294 34.5173 106.245 34.5571C122.653 35.2426 139.051 36.1661 155.356 36.4899C167.494 36.7587 179.577 35.476 191.586 33.1177C200.236 31.3341 208.907 29.0746 217.255 25.9675C223.185 23.7127 228.67 20.7243 233.936 17.25C243.479 11.2136 253.229 5.90084 263.975 2.41723C271.456 0.108076 279.125 -1.00155 286.75 1.81958C291.436 3.68378 295.493 6.35588 298.406 10.7677C300.873 14.4459 303.464 18.01 305.683 21.9162C312.444 33.9965 313.696 46.8 310.99 60.2723C308.19 73.1448 302.699 84.8324 295.109 95.4789C291.695 100.222 287.577 104.698 283.812 109.307C279.674 114.259 274.958 118.828 270.696 123.894C268.581 126.07 266.247 127.76 264.018 129.812Z" fill="#E9E4DA"/>
</svg>
