<svg width="66" height="57" viewBox="0 0 66 57" fill="none" xmlns="http://www.w3.org/2000/svg">
<path d="M57.3791 45.3269C55.3249 42.6103 53.2362 39.9282 51.182 37.2116C48.3511 33.4634 45.4511 29.7668 42.4821 26.1046C42.085 25.606 41.6708 25.1418 41.3773 24.54C43.5868 22.5455 59.4678 7.34649 62.057 4.62992C62.6612 3.97656 65.1642 1.91334 64.9225 1.07086C64.6636 0.108024 63.8177 0.348733 63.1618 0.38312C60.6933 0.451894 58.2249 0.641024 55.7564 0.658217C47.488 0.795765 39.2368 1.29438 30.9857 1.62105C21.716 1.98212 7.50952 2.30879 3.31489 2.8074C1.72679 2.99653 0.829175 4.26885 0.794651 5.83346C0.69108 12.7452 1.96846 43.0402 2.29643 50.3646C2.38274 52.445 2.71072 55.4539 4.7131 55.7634C5.14464 55.8321 26.0488 56.1072 62.4886 56.5543C62.8856 56.5543 63.2999 56.5715 63.6969 56.5543C64.2665 56.5027 64.8535 56.4167 65.0779 55.815C65.2677 55.1444 59.4677 48.0263 57.3791 45.3269Z" fill="#698DBE"/>
</svg>
