<svg width="993" height="488" viewBox="0 0 993 488" fill="none" xmlns="http://www.w3.org/2000/svg">
<path d="M459.933 384.533C456.842 384.802 449.787 386.819 448.846 387.828C447.099 389.576 445.285 390.719 443.403 391.458C442.933 391.66 442.463 391.794 441.992 391.929C441.186 392.13 440.312 392.332 439.439 392.399C438.297 392.534 437.154 392.466 436.012 392.399C435.609 392.332 435.206 392.332 434.803 392.265C433.996 392.13 433.19 391.996 432.384 391.794C431.98 391.727 431.577 391.592 431.174 391.458C430.099 391.189 428.957 390.92 428.15 390.248C426.336 388.903 424.388 388.029 422.439 387.626C420.49 387.155 418.407 387.021 416.324 387.088C414.913 387.088 413.569 387.223 412.158 387.29C404.297 387.76 372.111 388.097 363.913 387.626C361.293 387.492 358.74 387.357 356.119 387.29C348.324 387.088 340.396 387.223 332.064 387.155C334.684 389.912 337.506 391.256 340.127 392.87C348.459 397.912 356.925 402.685 365.392 407.593C366.4 408.198 367.407 408.736 368.483 409.274C370.566 410.349 372.649 411.358 374.53 412.635C375.471 413.307 376.411 413.98 377.285 414.786C377.554 415.055 377.89 415.257 378.226 415.526C378.562 415.728 378.83 415.996 379.099 416.265C379.435 416.602 379.704 417.005 379.905 417.341C381.518 419.694 381.048 421.644 378.427 423.728C377.822 424.198 377.016 424.333 376.68 425.341C376.882 426.282 377.688 426.686 378.427 427.224C378.696 427.425 378.898 427.56 379.099 427.761C383.198 431.93 379.905 436.098 376.21 436.905C375.471 437.039 374.664 437.106 373.925 437.106C372.245 437.039 371.641 437.779 371.17 439.459C370.901 440.333 370.7 441.073 370.431 441.678C370.23 442.081 370.095 442.417 369.894 442.753C369.826 442.888 369.692 443.022 369.558 443.157C369.356 443.426 369.087 443.627 368.818 443.762C368.684 443.829 368.55 443.896 368.415 443.964C367.945 444.098 367.475 444.232 366.803 444.232C366.4 444.232 365.929 444.232 365.392 444.165C364.854 444.098 364.317 444.031 363.712 443.896C359.546 443.157 355.649 441.745 351.953 440.266C351.751 440.333 351.617 440.333 351.483 440.4C351.348 440.468 351.281 440.535 351.147 440.602C350.945 440.737 350.878 440.938 350.811 441.207C350.206 443.291 349.534 444.569 348.526 445.174C347.518 445.779 346.107 445.711 344.159 445.106C339.858 443.762 335.692 442.216 331.593 440.333C328.166 438.787 324.74 437.106 321.313 435.426C317.886 433.745 314.459 432.131 310.965 430.72C309.285 430.047 307.605 429.442 305.858 428.972C303.305 428.232 300.684 427.627 298.064 427.224C295.443 426.82 292.823 426.551 290.135 426.417C288.993 426.35 287.85 426.282 286.708 426.148C284.423 425.879 282.273 425.408 280.123 424.803C276.898 423.929 273.874 422.652 270.918 421.106C268.969 420.097 267.02 418.887 265.139 417.61C259.293 413.576 253.246 409.744 247.265 405.979C246.795 405.71 246.325 405.442 245.854 405.173C245.384 404.904 244.847 404.702 244.376 404.5C243.368 404.164 242.293 403.895 241.151 403.895C239.001 403.895 236.918 403.626 234.902 403.156C233.558 402.887 232.214 402.484 230.87 402.08C230.198 401.878 229.526 401.61 228.922 401.408C227.645 400.937 226.301 400.399 225.024 399.794C224.016 399.324 223.009 398.92 222.001 398.517C221.329 398.248 220.791 398.114 220.321 398.181C219.515 398.248 218.977 398.853 218.708 400.265C218.439 401.542 218.171 402.82 217.768 404.097C217.432 405.374 217.028 406.652 216.558 407.862C215.685 410.282 214.811 411.425 213.333 411.627C213.064 411.694 212.728 411.694 212.392 411.627C211.72 411.559 210.847 411.358 209.906 411.089C202.38 408.669 194.855 406.248 187.329 403.895C186.455 403.626 185.783 403.425 185.246 403.156C183.768 402.483 183.768 401.744 183.768 398.651C183.768 397.912 183.432 397.509 182.625 397.509C182.088 398.719 181.214 398.92 180.274 398.92C179.87 398.92 179.534 398.853 179.131 398.853C178.93 398.853 178.728 398.853 178.594 398.853C169.523 399.257 160.855 397.374 152.187 395.088C142.309 392.534 132.297 390.987 122.218 389.441C117.515 388.702 112.811 387.828 108.108 386.954C106.428 386.618 104.815 385.945 104.143 384.197C103.337 384.265 102.531 384.332 101.657 384.332C101.59 384.87 101.456 385.34 101.12 385.542C101.052 385.609 100.985 385.609 100.918 385.609C100.851 385.609 100.716 385.609 100.649 385.609C100.515 385.609 100.448 385.542 100.313 385.475C98.9022 384.87 97.424 384.265 96.2145 383.391C83.2461 373.911 78.8786 363.827 82.3726 348.499C84.6572 338.616 89.2936 329.675 93.5939 320.599C97.8943 311.523 102.329 302.515 106.764 293.506C109.519 287.993 112.61 282.615 115.432 277.102C119.665 268.833 123.697 260.497 127.863 252.228C130.886 246.177 134.112 240.126 137.068 234.009C141.167 225.538 146.206 217.538 150.776 209.269C152.59 206.042 154.606 202.949 156.621 199.789C158.637 196.697 160.922 193.806 162.198 190.243C162.803 188.562 163.61 187.016 165.894 187.621C166.902 187.419 167.44 186.613 168.112 185.94C168.044 185.671 167.977 185.47 167.977 185.268V185.201C167.977 184.865 168.044 184.528 168.313 184.192C168.447 183.991 168.649 183.856 168.851 183.654C169.455 183.184 170.06 182.713 170.665 182.31C171.874 181.503 173.151 180.764 174.428 180.091C177.653 178.478 181.147 177.335 184.641 176.192C189.412 174.713 194.317 173.839 199.155 172.696C200.768 172.36 202.38 171.957 203.993 171.553C207.688 170.612 211.384 169.536 214.945 168.326C220.926 166.31 226.771 163.688 232.08 159.99C234.23 158.511 236.85 158.713 239.269 158.847C241.218 158.982 243.167 159.318 245.653 159.654C243.704 153.536 239.874 133.502 238.262 126.981C237.791 125.031 237.455 123.888 235.238 123.821C233.222 123.754 231.273 123.216 229.258 122.947C226.771 122.611 224.688 121.602 223.076 119.989C222.471 119.384 221.866 118.644 221.396 117.838C221.127 117.434 220.926 117.031 220.724 116.56C218.574 111.72 217.163 106.745 216.558 101.568C216.356 99.8204 216.289 98.0725 216.289 96.3246C216.289 93.9043 216.692 91.9547 217.633 90.4084C219.111 87.8537 221.799 86.3747 225.898 85.7697C221.866 78.9796 220.455 71.45 218.977 63.9204C218.91 63.6515 218.775 62.7103 218.708 61.5674C209.1 62.5086 198.953 66.6768 190.017 69.5676C182.088 72.1223 174.226 75.0803 166.499 78.3745C152.254 84.4923 138.345 91.1479 124.973 98.9465C114.827 104.93 104.95 111.249 95.4753 118.241C86.0011 125.233 76.93 132.762 68.5308 140.964C62.8865 146.477 57.3766 152.124 52.1355 158.04C46.8945 163.957 42.1909 170.276 37.4874 176.663C30.1633 186.545 23.8471 197.033 18.606 208.058C13.0289 219.756 8.32539 231.857 5.23449 244.698C2.14359 257.74 0.262163 270.85 0.0605825 284.228C-0.00661103 290.413 0.329365 296.598 0.866913 302.784C1.87481 315.557 4.89852 327.86 8.86294 339.961C11.1475 346.885 14.2384 353.474 17.3293 360.129C21.025 367.995 25.7285 375.323 30.5664 382.449C36.2779 390.92 42.93 398.651 49.9854 406.114C56.3687 412.904 63.1553 419.156 70.345 425.005C81.7679 434.283 93.9971 442.484 106.898 449.476C116.44 454.653 126.25 459.224 136.262 463.527C138.815 464.603 141.301 465.947 143.922 466.821C148.625 468.435 153.396 469.645 158.1 471.191C171.337 475.561 184.775 479.124 198.617 481.41C213.736 483.897 228.854 486.25 244.242 486.99C262.115 487.931 279.921 487.797 297.728 486.452C314.392 485.242 330.989 482.485 347.317 479.057C361.562 476.032 375.605 472.267 389.38 467.426C400.601 463.527 411.755 459.292 422.641 454.384C434.803 448.871 446.629 442.821 458.119 436.031C471.02 428.366 483.383 419.828 495.008 410.215C504.482 402.416 514.763 392.803 523.028 383.525C509.858 383.727 477.067 384.197 460.336 384.332C460.336 384.533 460.134 384.533 459.933 384.533Z" fill="#698DBE"/>
<path d="M517.316 311.321C515.905 311.254 514.561 311.052 513.15 310.85C506.901 309.909 506.901 309.909 506.632 303.455C505.692 280.799 504.818 258.211 503.743 235.555C502.735 214.176 501.996 192.797 502.332 171.351C502.399 166.511 503.004 165.906 507.909 165.301C520.81 163.687 533.846 163.217 546.814 162.544C547.15 162.544 549.972 162.41 554.81 162.208C552.794 156.763 548.561 151.048 545.269 146.746C537.743 136.729 529.142 127.586 519.802 119.115C510.597 110.778 500.787 103.249 490.439 96.3915C483.249 91.6183 475.589 87.5846 467.929 83.4836C456.976 77.6348 445.554 72.7943 433.929 68.4917C420.423 63.5168 406.581 59.5503 392.403 56.7267C382.123 54.6426 337.103 49.1299 335.423 49.1299C334.886 50.2728 336.23 52.4913 333.609 52.4913C333.206 55.046 333.878 57.8023 332.064 60.0209C332.064 62.9117 331.862 65.7353 330.182 68.29C328.704 70.5758 328.838 73.1977 328.771 75.8196C328.704 78.3743 329.376 81.3996 326.487 83.0803C327.427 87.1812 327.091 91.3494 327.159 95.4503C327.629 95.7864 328.435 95.2486 328.57 96.5932C329.107 101.366 330.653 106.072 330.921 110.778C331.123 113.064 330.921 115.552 329.846 118.51C329.107 120.594 328.166 122.543 326.823 123.888C325.815 124.896 324.538 125.636 322.858 125.905C322.321 125.972 321.716 126.039 321.044 126.039C319.969 126.039 319.297 126.51 319.028 127.586C318.827 128.258 314.862 137.871 314.593 137.804C314.728 137.871 320.977 143.989 324.807 148.157C327.159 150.712 333.139 155.149 334.147 158.443C335.02 158.578 335.894 158.511 336.767 158.175C348.392 160.796 359.613 164.561 370.498 169.267C372.044 169.94 373.589 170.612 375.135 171.351C377.218 172.293 379.368 173.301 381.451 174.309C385.617 176.326 389.783 178.41 393.815 180.696C395.83 181.839 397.846 183.049 399.795 184.259C401.945 185.604 404.162 186.948 406.313 188.293C407.724 189.234 409.135 190.175 410.478 191.184C411.15 191.722 411.822 192.259 412.427 192.797C413.704 193.94 414.913 195.083 416.056 196.428C416.795 197.369 418.071 198.243 418.407 199.386C418.475 199.52 418.475 199.655 418.475 199.722C418.542 199.991 418.475 200.26 418.475 200.528C418.407 200.932 418.206 201.402 417.803 201.873C417.534 202.209 417.668 202.613 417.937 202.949C418.071 203.15 418.273 203.352 418.407 203.487C418.811 204.024 419.146 204.562 419.55 205.033C419.684 205.234 419.751 205.369 419.886 205.571C420.154 205.907 420.356 206.31 420.558 206.646C420.692 206.848 420.826 207.05 420.893 207.251C421.095 207.587 421.297 207.924 421.498 208.26C421.633 208.529 421.767 208.73 421.834 208.999C421.969 209.335 422.17 209.672 422.305 209.94C422.439 210.209 422.573 210.478 422.641 210.68C422.775 211.016 422.909 211.285 423.044 211.621C423.178 211.89 423.245 212.159 423.38 212.428C423.514 212.764 423.648 213.033 423.783 213.369C423.917 213.638 423.984 213.907 424.119 214.176C424.253 214.512 424.388 214.781 424.455 215.117C424.589 215.386 424.656 215.655 424.791 215.991C424.925 216.327 424.992 216.596 425.127 216.932C425.261 217.201 425.328 217.537 425.463 217.806C425.597 218.142 425.664 218.411 425.799 218.747C425.866 219.016 426 219.352 426.067 219.621C426.202 219.958 426.269 220.226 426.403 220.563C426.471 220.899 426.605 221.168 426.672 221.504C426.807 221.84 426.874 222.176 427.008 222.512C427.143 222.983 427.344 223.521 427.478 223.991C427.546 224.26 427.68 224.529 427.747 224.798C427.882 225.134 427.949 225.47 428.083 225.874C428.15 226.143 428.285 226.411 428.352 226.68C428.486 227.016 428.554 227.353 428.688 227.689C428.755 227.958 428.89 228.227 428.957 228.496C429.091 228.832 429.158 229.101 429.293 229.437C429.36 229.706 429.494 229.975 429.629 230.243C429.763 230.647 429.965 231.117 430.099 231.521C431.644 235.555 433.123 239.655 434.467 243.756C434.803 244.832 435.206 245.908 435.542 246.983C435.81 247.79 436.079 248.664 436.348 249.471C437.02 251.689 437.692 253.975 438.364 256.194C438.431 256.53 438.565 256.866 438.633 257.202C438.969 258.412 439.305 259.622 439.64 260.832C439.909 261.841 440.111 262.849 440.38 263.858C440.514 264.328 440.581 264.732 440.716 265.135C440.917 265.942 441.119 266.749 441.253 267.555C441.522 268.631 441.723 269.707 441.992 270.715C442.395 272.396 442.731 274.009 443.067 275.69C443.269 276.698 443.471 277.707 443.739 278.715C444.142 280.53 444.478 282.346 444.882 284.228C445.016 285.035 445.218 285.909 445.352 286.715C445.889 289.337 446.36 292.026 446.897 294.648C447.166 296.262 447.502 297.875 447.771 299.422C448.107 301.035 448.443 302.581 448.913 304.128C451.131 311.792 452.542 319.523 453.617 327.389C454.692 335.187 455.431 343.12 456.17 350.986C457.111 360.6 456.506 370.079 453.684 379.289C457.178 379.02 463.629 378.886 469.474 378.818C472.162 378.751 474.85 378.751 477.538 378.684C489.028 378.482 513.016 378.146 528.134 378.079C530.352 375.592 533.443 372.499 535.324 369.944C541.64 361.339 548.091 352.868 553.466 343.591C558.707 334.582 563.209 325.237 567.51 315.825C567.98 314.817 568.182 313.741 568.114 312.666C567.174 312.531 566.3 312.464 565.36 312.397C560.051 312.329 553.466 312.262 550.039 312.128C539.289 311.993 528.269 311.724 517.316 311.321Z" fill="#698DBE"/>
<path d="M469.743 379.088C463.897 379.156 457.514 379.29 453.953 379.559C456.842 370.349 457.38 360.869 456.439 351.256C455.633 343.39 454.961 335.524 453.886 327.659C452.81 319.86 451.399 312.061 449.182 304.397C448.712 302.851 448.376 301.238 448.04 299.691C447.704 298.078 447.435 296.464 447.166 294.918C446.696 292.296 446.158 289.607 445.621 286.985C445.486 286.178 445.285 285.305 445.15 284.498C444.814 282.683 444.411 280.867 444.008 278.985C443.806 277.977 443.605 276.968 443.336 275.96C443 274.279 442.597 272.598 442.261 270.985C441.992 269.909 441.791 268.834 441.522 267.825C441.253 266.548 440.917 265.338 440.648 264.06C440.38 263.052 440.178 262.043 439.909 261.035C439.573 259.825 439.237 258.615 438.901 257.405C438.834 257.069 438.7 256.732 438.633 256.396C438.028 254.11 437.356 251.892 436.617 249.673C436.348 248.867 436.079 247.993 435.81 247.186C435.474 246.11 435.071 245.035 434.735 243.959C433.257 239.656 431.712 235.354 430.099 231.118C430.032 230.917 429.965 230.715 429.897 230.446C429.763 230.177 429.696 229.908 429.561 229.639C429.427 229.303 429.36 229.034 429.225 228.698C429.158 228.429 429.024 228.16 428.957 227.891C428.822 227.555 428.755 227.219 428.621 226.883C428.554 226.614 428.419 226.345 428.352 226.076C428.218 225.74 428.15 225.404 428.016 225.001C427.949 224.732 427.814 224.463 427.747 224.194C427.613 223.723 427.411 223.185 427.277 222.715C427.142 222.379 427.075 222.042 426.941 221.706C426.874 221.37 426.739 221.101 426.672 220.765C426.538 220.429 426.471 220.16 426.336 219.824C426.269 219.555 426.135 219.219 426.067 218.95C425.933 218.614 425.866 218.345 425.731 218.009C425.597 217.74 425.53 217.404 425.395 217.135C425.261 216.799 425.194 216.53 425.06 216.194C424.925 215.925 424.858 215.656 424.724 215.32C424.589 214.983 424.455 214.715 424.388 214.378C424.253 214.11 424.186 213.841 424.052 213.572C423.917 213.236 423.783 212.967 423.648 212.63C423.514 212.362 423.447 212.093 423.312 211.824C423.178 211.488 423.044 211.219 422.909 210.883C422.775 210.614 422.641 210.345 422.573 210.143C422.439 209.807 422.237 209.471 422.103 209.202C421.969 208.933 421.834 208.731 421.767 208.462C421.565 208.126 421.364 207.79 421.162 207.454C421.028 207.252 420.894 207.051 420.826 206.849C420.625 206.445 420.356 206.109 420.154 205.773C420.02 205.571 419.953 205.437 419.818 205.235C419.482 204.698 419.079 204.16 418.676 203.689C418.542 203.487 418.34 203.353 418.206 203.151C417.937 202.815 417.803 202.479 418.071 202.076C418.407 201.605 418.609 201.134 418.743 200.731C418.811 200.462 418.811 200.193 418.743 199.924C418.743 199.79 418.676 199.655 418.676 199.588C418.34 198.445 417.063 197.571 416.324 196.63C415.249 195.286 414.04 194.075 412.696 193C412.024 192.462 411.419 191.924 410.747 191.386C409.403 190.378 407.992 189.369 406.581 188.495C404.431 187.084 402.214 185.806 400.064 184.462C398.115 183.252 396.099 182.042 394.083 180.899C390.052 178.613 385.886 176.529 381.72 174.512C379.637 173.503 377.554 172.562 375.404 171.554C373.858 170.814 372.313 170.142 370.767 169.47C359.882 164.764 348.66 160.999 337.036 158.377C335.356 168.192 332.668 177.604 328.166 186.546C324.336 194.21 320.506 202.008 318.625 210.479C316.811 210.21 316.34 208.53 315.131 207.924C314.123 207.387 313.317 207.723 313.115 208.933C312.578 211.757 313.854 214.177 315.4 216.261C316.475 217.673 319.095 217.068 319.969 215.521C323.665 208.933 327.696 202.479 330.921 195.689C335.894 185.336 340.664 174.848 339.253 162.949C340.799 162.411 341.74 163.486 342.747 164.024C345.906 165.638 349.131 167.05 352.49 168.26C360.621 171.15 368.348 175.117 376.008 178.882C383.332 182.512 390.455 186.546 397.443 190.781C402.953 194.075 408.597 197.101 414.241 199.992C415.72 200.731 417.265 201.403 416.324 203.824C415.921 204.832 416.459 206.311 416.795 207.454C421.162 221.975 424.992 236.631 429.696 251.018C432.787 260.497 435.004 270.245 436.818 280.128C439.237 293.372 441.791 306.549 445.15 319.524C446.091 323.087 446.494 326.381 447.301 331.154C445.419 329.272 444.142 328.264 443.067 326.986C435.474 317.507 425.799 310.784 415.048 305.473C410.075 302.986 405.17 300.296 400.131 297.943C391.664 293.977 383.064 290.683 373.724 289.405C372.716 289.271 371.439 289.137 370.834 288.128C367.811 283.355 363.04 280.33 359.411 276.094C356.858 273.136 353.7 270.85 350.609 268.565C347.317 266.077 346.376 266.144 343.151 268.497C338.917 271.657 335.491 275.624 332.4 279.859C330.317 282.683 328.368 285.708 326.151 288.935C321.111 282.145 313.854 278.582 307.404 274.01C302.499 270.514 297.661 266.951 293.159 262.917C291.546 261.506 289.463 260.699 287.85 259.22C283.08 254.85 280.325 249.539 278.981 243.287C277.099 234.345 275.957 225.337 275.89 216.261C277.435 214.782 279.25 217.404 280.661 215.723L280.526 215.857C280.526 214.311 279.72 213.236 278.578 212.294C272.53 207.454 265.676 205.034 257.949 205.168C254.052 205.235 250.222 205.908 248.005 209.874C247.131 211.353 245.451 212.025 243.704 212.362C242.898 210.479 243.301 208.933 244.376 207.521C247.467 203.555 251.23 201 256.538 200.933C261.712 200.865 266.752 201.538 271.724 202.882C274.68 203.689 277.704 204.63 280.795 204.563C281.87 204.563 283.012 204.496 283.953 204.16C285.23 203.622 285.364 202.613 284.356 201.605C283.953 201.202 283.348 200.865 282.811 200.664C274.412 197.907 266.012 195.353 256.941 196.16C250.894 196.697 245.854 198.445 242.696 203.824C241.957 205.034 241.151 206.177 240.345 207.319C237.791 210.681 238.194 210.815 233.222 211.084C234.835 206.109 237.321 201.807 240.21 197.706C241.285 196.16 243.167 195.017 245.115 194.344C251.633 192.26 258.218 190.243 265.005 189.235C267.088 188.899 269.305 189.168 271.186 190.109C273.404 191.185 275.688 192.126 278.04 193C279.653 193.605 281.265 194.075 282.945 194.479C283.684 194.68 284.558 194.479 284.894 193.672C285.297 192.798 284.759 192.126 284.088 191.722C282.609 190.848 281.131 189.974 279.586 189.302C268.767 184.395 257.613 180.361 247.534 173.772C244.242 171.621 240.681 169.604 237.321 167.453C236.38 166.848 235.507 166.243 235.372 164.898C237.59 163.15 239.941 164.495 241.957 165.033C250.222 167.251 257.949 170.814 265.273 175.117C271.052 178.478 277.368 180.562 283.147 183.924C283.886 184.395 284.961 184.394 285.835 184.529C288.522 184.932 289.194 184.529 289.261 181.773C289.463 173.84 289.597 165.974 289.665 158.041C289.732 152.461 290.471 146.948 291.344 141.435C291.546 140.158 291.949 139.015 292.823 138.007C295.443 142.108 296.048 146.747 295.981 151.318C295.846 161.738 297.459 172.024 298.265 182.378C298.467 185.336 299.273 188.159 300.684 190.781C306.06 200.866 307.874 211.824 308.21 222.984C308.546 233.135 311.973 241.942 317.819 250.077C321.917 255.724 326.89 260.564 331.862 265.472C333.139 266.749 334.751 267.758 336.566 268.094C337.574 266.884 336.566 266.346 336.028 265.674C329.376 257.136 323.664 247.925 317.751 238.85C313.989 233.068 313.653 226.345 312.309 219.891C311.234 214.849 310.696 209.672 310.226 204.563C309.823 200.395 308.748 196.294 306.866 192.664C304.178 187.554 303.372 182.109 302.902 176.596C302.095 167.991 301.692 159.318 301.02 150.646C300.953 149.368 301.356 148.562 302.431 148.024L312.443 142.309C313.317 142.108 318.155 148.763 318.155 149.637C317.617 159.251 316.945 168.797 311.637 177.268C309.621 180.495 308.815 184.058 308.076 187.756C307.874 188.63 307.336 189.638 308.479 190.176C309.352 190.58 309.823 189.706 310.293 189.168C317.617 180.294 323.261 170.68 323.06 158.646C323.06 157.772 322.925 155.486 323.665 154.343C327.159 156.696 333.408 161.402 333.945 160.596C334.348 159.991 334.415 159.318 334.147 158.512C333.139 155.217 327.159 150.78 324.807 148.226C320.977 144.125 314.728 137.94 314.593 137.872C314.795 137.94 318.759 128.393 319.028 127.654C319.297 126.645 319.902 126.107 321.044 126.107C321.716 126.107 322.321 126.107 322.858 125.973C324.538 125.704 325.815 124.964 326.823 123.956C328.166 122.611 329.04 120.662 329.846 118.578C330.787 115.956 331.056 113.401 330.921 110.846C330.653 106.14 329.174 101.434 328.57 96.6613C328.435 95.3167 327.629 95.9217 327.159 95.5184C325.076 97.1318 325.68 99.4848 325.949 101.434C326.352 104.93 326.151 117.704 324 120.258C323.396 120.931 322.522 121.67 321.581 121.267C320.506 120.796 320.842 119.721 320.977 118.847C321.581 114.544 322.186 110.309 322.858 106.006C323.06 104.796 323.329 103.653 321.716 102.846C319.095 107.149 318.02 111.788 316.811 116.359C315.534 121.267 315.064 126.443 312.846 131.082C310.226 136.528 306.933 141.301 300.953 143.923C299.811 141.032 299.273 138.208 297.795 135.855C296.586 133.906 294.838 132.629 292.42 132.763C289.665 132.897 288.724 135.049 288.119 137.335C287.783 138.477 287.582 139.553 287.447 140.696C286.238 150.041 284.894 159.385 285.028 168.865C285.095 171.89 285.297 174.982 284.558 178.478C278.779 175.655 273.202 173.167 267.759 170.277C262.182 167.318 256.538 164.428 250.692 161.94C249.416 161.402 248.878 160.999 248.609 159.52C246.997 149.637 245.182 139.755 243.368 129.872C242.562 125.435 241.621 121.065 240.479 116.763C240.412 116.494 240.345 114.88 239.135 113.67C238.866 113.401 238.396 112.863 237.993 112.998C237.724 113.065 237.388 113.401 237.254 116.292C237.186 117.704 237.186 118.847 237.186 119.586C228.586 120.393 224.957 115.821 223.681 112.124C221.799 106.544 220.657 100.829 221.06 94.8461C221.194 92.9637 222.807 91.014 224.688 90.7451C227.107 90.409 228.451 92.0897 230.131 93.1654C230.736 93.5687 231.475 94.1065 232.214 93.4343C233.088 92.762 233.02 91.7535 232.617 90.8796C232.013 89.6022 230.87 88.661 229.594 88.1232C227.645 87.3165 227.376 86.0391 227.511 84.0895C227.779 79.5852 227.376 75.1481 226.57 70.6438C225.495 64.9966 224.285 59.3494 224.218 53.635C224.151 50.408 223.882 46.8449 228.451 46.1726C229.459 46.0381 229.526 45.1642 229.392 44.3574C229.325 43.6852 228.854 43.349 228.115 43.2818C225.293 42.8784 222.941 43.4162 221.194 45.9709C218.977 49.1979 218.439 52.8282 218.372 56.593C218.372 57.7359 218.507 60.0217 218.708 61.7696C218.843 62.9125 218.91 63.8537 218.977 64.1226C220.455 71.6522 221.866 79.1818 225.898 85.9719C221.866 86.577 219.111 88.056 217.633 90.6107C216.76 92.1569 216.289 94.1066 216.289 96.5268C216.289 98.2747 216.356 100.023 216.558 101.771C217.096 106.947 218.507 111.989 220.724 116.763C220.926 117.233 221.127 117.637 221.396 118.04C221.866 118.847 222.471 119.586 223.076 120.191C224.688 121.805 226.704 122.813 229.258 123.149C231.273 123.418 233.222 124.023 235.238 124.023C237.455 124.09 237.791 125.233 238.262 127.183C239.874 133.704 243.704 153.806 245.653 159.856C243.167 159.52 241.218 159.184 239.269 159.049C236.783 158.915 234.23 158.646 232.08 160.192C226.771 163.957 220.926 166.512 214.945 168.529C211.317 169.739 207.688 170.814 203.993 171.756C202.38 172.159 200.768 172.562 199.155 172.898C194.317 173.974 189.412 174.915 184.641 176.394C181.147 177.47 177.653 178.613 174.428 180.294C173.151 180.966 171.874 181.705 170.665 182.512C170.06 182.915 169.455 183.386 168.851 183.857C168.582 184.058 168.447 184.193 168.313 184.395C168.044 184.731 167.977 185.067 167.977 185.403V185.47C167.977 185.672 168.044 185.874 168.112 186.142C177.72 182.647 187.665 180.562 197.609 178.277C208.831 175.588 219.985 172.361 229.661 165.571C233.155 168.596 234.969 172.092 234.835 176.865C234.7 181.705 235.91 186.411 237.724 190.848C238.463 192.664 238.329 193.874 236.85 195.353C232.886 199.252 231.072 204.429 229.123 209.471C228.317 211.488 228.72 213.101 230.131 214.58C231.609 215.992 233.289 215.656 234.902 214.849C237.119 213.773 238.866 213.034 240.479 216.059C241.218 217.471 243.637 217.068 245.25 216.597C247.601 215.925 248.273 216.799 249.281 218.95C251.163 222.984 254.052 226.547 255.597 230.782C255.933 231.791 256.941 232.53 258.151 232.396C259.427 232.328 260.167 231.522 260.234 230.312C260.435 226.278 262.518 222.984 264.198 219.488C265.206 217.269 271.254 211.757 271.388 213.168C271.455 214.244 271.455 215.32 271.455 216.395C271.791 227.286 272.866 238.043 275.89 248.463C276.226 249.606 276.427 250.816 276.36 252.094C275.688 264.329 274.882 276.565 274.949 288.8C275.016 311.793 274.882 334.785 275.957 357.71C276.159 362.55 276.562 367.323 279.317 371.559C279.72 372.164 279.921 373.105 280.929 372.903C281.803 372.702 281.937 371.895 282.005 371.088C282.206 366.718 282.542 362.416 282.542 358.046C282.542 336.465 282.475 314.885 282.273 293.305C282.206 283.355 281.736 273.472 281.534 263.522C281.534 262.514 281.131 261.438 282.072 260.296C285.297 262.85 288.522 265.405 291.748 267.96C293.898 269.708 295.846 271.657 298.265 273.136C301.02 274.75 302.364 277.439 302.566 280.867C303.17 290.279 304.246 299.691 304.783 309.171C305.522 321.272 307.404 333.171 309.083 345.205C310.159 353.205 311.838 361.071 315.131 368.466C315.87 370.147 316.408 371.895 319.095 372.231C314.795 341.709 312.914 311.12 307.269 280.599C314.123 282.683 318.222 289.338 325.344 290.279C324.874 292.7 323.06 294.111 322.119 296.061C320.036 300.565 320.574 302.112 324.404 305.137C328.368 308.229 332.198 311.456 336.431 314.213C340.328 316.767 344.159 319.457 347.854 322.347C351.147 324.969 351.483 324.902 353.969 322.347C358.605 317.44 361.024 312.801 364.585 307.221C366.736 303.86 372.985 293.439 374.664 293.708C379.032 294.515 382.728 296.868 386.692 298.481C399.257 303.725 411.15 310.381 423.044 316.969C427.21 319.255 430.771 322.616 434.601 325.44C438.297 328.196 441.522 331.692 446.293 332.701C447.569 332.97 447.502 333.911 447.569 334.785C448.846 343.995 449.988 353.273 450.056 362.55C450.056 368.332 448.712 373.912 446.965 379.424C445.554 383.794 440.312 386.416 435.676 385.408C428.957 383.929 423.312 380.164 418.071 375.929C413.905 372.567 410.008 369.004 406.245 365.239C396.704 355.558 386.49 346.617 375.471 338.617C371.238 335.524 367.004 332.432 363.04 328.936C362.435 328.398 361.763 327.39 360.755 328.196C359.747 328.936 360.419 329.81 360.688 330.684C362.435 336.331 366.736 339.894 370.969 343.592C372.044 344.533 373.186 345.407 374.396 346.281C377.218 348.365 377.486 351.39 377.016 355.895C376.277 362.483 377.755 369.004 380.443 374.987C381.384 377.139 381.249 379.626 381.518 381.845C380.04 382.651 378.763 382.248 377.554 382.248C362.838 382.046 331.056 382.315 330.115 382.651C325.21 384.534 320.977 382.719 316.945 380.231C311.771 377.004 306.194 376.198 300.416 376.87C287.246 378.416 274.546 376.735 262.115 371.962C256.068 369.676 250.155 366.786 243.839 365.172C242.495 364.836 241.084 364.5 240.546 362.483C240.21 361.206 238.262 360.264 236.716 359.525C230.87 356.5 224.621 354.55 218.171 353.676C213.803 353.071 212.056 351.054 211.183 346.751C208.696 334.919 207.151 322.953 205.001 311.053C202.582 298.011 199.155 285.103 195.325 272.329C192.704 263.59 189.748 254.984 185.783 246.715C183.096 241.203 180.206 235.757 177.451 230.244C177.048 229.37 176.511 228.429 175.436 228.765C174.293 229.101 174.428 230.446 174.696 231.118C176.309 235.488 178.056 239.724 179.803 244.026C183.364 252.766 186.791 261.506 189.479 270.581C190.017 272.397 189.949 273.876 189.143 275.422C186.119 281.338 183.23 287.321 180.072 293.17C173.89 304.599 167.574 315.893 162.938 328.062C161.862 330.818 161.594 333.776 160.989 336.936C154.001 335.726 147.147 333.709 140.092 336.331C162.4 342.314 184.507 348.701 206.479 356.97C204.53 360.466 201.439 362.819 199.155 365.844C192.234 374.853 187.866 384.937 185.985 396.097C185.783 397.509 185.649 398.517 184.036 398.585C184.036 401.61 183.969 402.417 185.515 403.089C185.985 403.291 186.657 403.492 187.598 403.828C195.123 406.249 202.649 408.602 210.175 411.022C211.115 411.358 211.989 411.56 212.661 411.56C212.997 411.56 213.333 411.56 213.601 411.56C215.08 411.358 216.02 410.215 216.827 407.795C217.23 406.585 217.633 405.307 218.036 404.03C218.372 402.753 218.708 401.475 218.977 400.198C219.246 398.854 219.783 398.248 220.59 398.114C221.06 398.047 221.665 398.181 222.269 398.45C223.277 398.854 224.285 399.257 225.293 399.728C226.57 400.265 227.847 400.803 229.19 401.341C229.862 401.61 230.467 401.812 231.139 402.013C232.483 402.417 233.76 402.82 235.171 403.089C237.186 403.56 239.269 403.761 241.42 403.828C242.562 403.828 243.637 404.03 244.645 404.434C245.182 404.635 245.653 404.837 246.123 405.106C246.594 405.375 247.064 405.644 247.534 405.913C253.514 409.745 259.562 413.577 265.408 417.543C267.289 418.82 269.238 420.031 271.186 421.039C274.143 422.585 277.167 423.795 280.392 424.737C282.542 425.342 284.692 425.745 286.977 426.081C288.119 426.216 289.261 426.35 290.404 426.35C293.024 426.484 295.712 426.753 298.333 427.157C300.953 427.56 303.574 428.165 306.127 428.905C307.807 429.443 309.554 429.98 311.234 430.653C314.728 432.064 318.222 433.678 321.581 435.359C325.008 437.039 328.368 438.72 331.862 440.266C335.961 442.149 340.194 443.695 344.427 445.04C346.443 445.645 347.787 445.712 348.795 445.107C349.803 444.502 350.475 443.224 351.079 441.14C351.147 440.871 351.281 440.737 351.415 440.535C351.483 440.468 351.617 440.401 351.751 440.334C351.886 440.266 352.02 440.199 352.222 440.199C355.917 441.678 359.815 443.09 363.981 443.829C364.585 443.964 365.19 444.031 365.66 444.098C366.198 444.166 366.601 444.166 367.072 444.166C367.676 444.166 368.214 444.098 368.684 443.897C368.819 443.829 368.953 443.762 369.087 443.695C369.356 443.561 369.625 443.359 369.826 443.09C369.961 442.955 370.028 442.821 370.162 442.687C370.364 442.418 370.566 442.014 370.7 441.611C370.969 441.006 371.17 440.266 371.439 439.392C371.909 437.712 372.447 436.972 374.194 437.039C374.933 437.039 375.739 437.039 376.479 436.838C380.174 436.031 383.467 431.863 379.368 427.695C379.166 427.493 378.898 427.291 378.696 427.157C377.957 426.619 377.151 426.148 376.949 425.274C377.218 424.266 378.091 424.131 378.696 423.661C381.317 421.51 381.787 419.627 380.174 417.274C379.973 416.938 379.704 416.602 379.368 416.199C379.099 415.93 378.83 415.661 378.494 415.459C378.158 415.257 377.89 414.988 377.554 414.719C376.68 413.913 375.739 413.24 374.799 412.568C372.85 411.291 370.767 410.282 368.751 409.207C367.743 408.669 366.668 408.131 365.66 407.526C357.261 402.618 348.728 397.845 340.396 392.803C337.775 391.257 334.953 389.845 332.332 387.089C340.664 387.223 348.593 387.021 356.388 387.223C359.008 387.29 361.562 387.357 364.182 387.559C372.38 388.03 404.565 387.761 412.427 387.223C413.838 387.156 415.249 387.021 416.593 387.021C418.676 387.021 420.692 387.089 422.708 387.559C424.656 388.03 426.605 388.836 428.419 390.181C429.225 390.786 430.368 391.055 431.443 391.391C431.846 391.526 432.249 391.593 432.652 391.727C433.459 391.929 434.265 392.063 435.071 392.198C435.475 392.265 435.878 392.332 436.281 392.332C437.423 392.467 438.633 392.467 439.708 392.332C440.581 392.265 441.388 392.063 442.261 391.862C442.731 391.727 443.202 391.593 443.672 391.391C445.554 390.652 447.435 389.442 449.115 387.761C450.055 386.752 457.178 384.736 460.202 384.467C460.403 384.467 460.605 384.467 460.806 384.467C477.538 384.332 510.261 383.929 523.498 383.66C526.723 383.593 528.739 383.593 529.142 383.525C533.443 383.324 537.81 382.988 542.111 382.92C544.866 382.853 546.411 381.71 546.68 378.819C545.067 377.878 543.32 378.416 541.707 378.349C540.431 378.282 535.458 378.282 528.672 378.282C513.553 378.349 489.565 378.685 478.075 378.887C475.589 379.021 472.767 379.021 469.743 379.088ZM238.732 173.907C245.854 178.142 252.574 182.378 260.368 185.605C254.254 187.285 248.609 188.764 242.965 190.311C241.823 190.647 241.151 190.243 240.882 189.168C239.673 184.26 238.194 179.42 238.732 173.907ZM256.74 223.589C254.724 220.16 253.044 217 250.76 214.311C249.953 213.303 250.692 212.563 251.297 211.958C253.783 209.404 256.605 207.723 260.435 208.933C262.182 209.471 263.997 209.941 266.55 210.614C262.115 214.378 259.831 218.95 256.74 223.589ZM350.542 317.574C343.554 310.784 335.826 306.145 328.166 301.641C326.016 300.431 326.083 299.557 327.427 297.809C333.072 290.212 338.581 282.481 344.226 274.884C345.368 273.338 347.384 273.271 348.66 274.615C354.506 280.733 360.218 286.985 368.348 290.683C360.89 298.75 355.447 307.759 350.542 317.574ZM165.558 338.213C165.827 335.188 166.969 332.365 168.313 329.608C171.874 322.213 175.57 314.885 179.266 307.557C183.23 299.691 187.598 292.027 190.353 283.557C190.621 282.683 191.159 281.876 191.898 280.397C194.115 285.977 194.384 291.288 195.862 296.263C199.558 308.767 200.902 321.742 203.254 334.516C204.396 340.835 205.068 347.356 208.159 353.407C194.451 346.953 180.408 341.911 165.558 338.213ZM215.013 395.761C214.341 399.122 213.736 402.686 211.922 405.845C205.202 403.358 198.685 401.139 191.898 399.66C188.874 398.988 188.941 398.921 190.017 395.694C193.242 385.542 198.214 376.063 204.53 367.525C210.107 359.995 211.922 356.163 218.641 358.584C224.688 360.735 231.273 361.071 237.657 363.222C233.424 367.794 229.19 372.231 225.092 376.735C219.985 382.248 216.491 388.366 215.013 395.761ZM338.783 397.643C349.265 403.022 359.008 409.61 369.49 414.921C371.909 416.131 374.396 417.476 375.874 420.031C372.178 423.325 368.819 421.711 365.593 419.896C362.234 418.081 358.807 416.131 355.514 414.182C349.668 410.686 343.419 407.929 337.439 404.77C331.997 401.879 326.487 399.122 320.506 397.442C319.969 397.307 319.297 397.038 318.558 397.711C320.305 400.736 323.329 402.349 326.285 403.761C335.222 408.064 343.823 412.972 352.49 417.745C357.866 420.703 363.107 423.997 368.684 426.686C370.969 427.762 373.186 429.308 374.866 431.459C370.364 433.678 368.281 433.476 364.451 430.922C358.269 426.821 351.751 423.459 344.898 420.501C338.649 417.812 332.668 414.518 326.621 411.56C323.933 410.215 321.246 409.139 317.684 408.4C319.095 410.484 320.439 411.694 321.985 412.635C330.317 417.678 339.052 422.047 347.921 426.148C353.162 428.569 357.933 431.728 362.704 434.754C364.249 435.762 365.526 437.107 366.601 438.922C365.056 440.266 363.443 439.728 362.166 439.258C358.941 438.115 355.581 437.51 352.558 435.896C344.091 431.392 335.692 426.888 327.159 422.518C322.388 420.098 317.415 417.946 312.51 415.728C310.831 414.988 309.084 414.518 306.866 415.459C309.487 418.283 312.712 419.425 315.668 420.905C321.581 423.93 327.562 426.821 333.139 430.585C335.289 432.064 337.775 433.006 340.06 434.283C343.285 436.031 343.285 436.031 345.368 441.073C340.328 438.989 336.162 437.443 332.131 435.628C326.083 432.938 320.238 429.711 314.056 427.291C308.008 424.871 301.558 423.728 295.107 423.123C289.866 422.652 284.625 421.778 279.518 420.568C274.546 419.358 270.313 416.4 266.08 413.577C260.301 409.745 254.657 405.644 248.878 401.879C247.064 400.736 245.048 400.064 242.898 399.795C235.372 398.921 228.25 397.038 221.127 394.08C221.463 391.324 222.605 388.904 224.218 386.551C227.981 381.24 231.945 376.063 236.179 371.155C238.665 368.197 238.597 368.466 242.428 369.945C253.38 374.113 263.929 379.559 275.554 381.71C282.072 382.92 288.657 383.862 295.443 382.853C298.333 382.383 301.356 382.584 304.246 382.45C309.016 382.248 313.249 383.324 317.55 385.677C324.605 389.509 331.526 393.879 338.783 397.643ZM391.261 382.383C388.103 382.45 387.969 382.383 387.7 379.156C387.095 372.365 385.886 365.643 384.542 358.987C384.34 357.911 384.273 356.836 384.071 354.886C394.621 363.424 403.222 372.971 412.83 381.643C405.439 381.24 398.384 382.248 391.261 382.383Z" fill="#111011"/>
<path d="M968.924 283.018C962.607 274.614 956.157 266.345 949.841 257.942C941.106 246.311 932.169 234.882 923.03 223.588C921.821 222.042 920.544 220.63 919.604 218.748C926.39 212.563 975.307 165.57 983.303 157.166C985.184 155.15 992.844 148.763 992.105 146.141C991.299 143.183 988.678 143.922 986.663 143.99C979.07 144.191 971.477 144.796 963.884 144.864C938.418 145.267 913.019 146.813 887.619 147.822C859.062 148.965 830.572 150.645 802.082 151.452C784.881 151.923 767.679 152.797 750.477 153.603C735.561 154.276 590.759 160.662 554.944 162.209C550.174 162.41 547.284 162.545 546.948 162.545C533.98 163.217 520.945 163.755 508.043 165.301C503.138 165.906 502.533 166.511 502.466 171.352C502.13 192.73 502.869 214.176 503.877 235.555C504.952 258.143 505.759 280.799 506.767 303.455C507.035 309.909 507.103 309.909 513.284 310.85C514.628 311.052 539.423 311.993 550.442 312.397C553.937 312.531 560.454 312.598 565.763 312.665C569.66 312.733 572.885 312.733 573.624 312.733C598.419 313.136 623.28 313.607 648.075 314.01C760.221 315.825 872.434 316.363 984.647 317.775C985.856 317.775 987.133 317.842 988.342 317.775C990.09 317.64 991.904 317.371 992.576 315.489C993.18 313.405 975.307 291.354 968.924 283.018ZM976.18 310.178C921.082 309.64 865.983 309.102 810.884 308.497C759.683 307.959 708.482 307.22 657.28 306.615C611.051 306.077 564.822 305.405 518.526 306.01C517.921 306.01 517.316 306.01 516.644 306.01C514.494 306.01 513.217 305.27 513.352 302.716C513.688 294.178 513.016 285.64 512.545 277.102C512.008 265.942 511.403 254.782 510.798 243.622C510.328 234.479 510.126 225.336 509.454 216.193C508.379 201.335 508.581 186.411 506.498 171.621C506.229 169.805 506.901 169.066 508.715 169.066C513.083 169.066 517.383 169.133 521.751 168.999C545 168.394 568.316 167.99 591.565 167.116C616.83 166.242 642.094 164.763 667.359 163.822C687.853 163.083 708.28 161.94 728.774 161.402C754.845 160.662 780.849 159.385 806.92 158.309C826.137 157.503 845.355 156.561 864.572 156.024C881.908 155.553 899.311 154.477 916.647 153.671C923.635 153.334 930.623 152.998 937.544 152.729C950.109 152.259 962.675 151.788 975.24 151.318C975.845 151.318 976.382 151.385 977.659 151.519C975.173 155.822 971.41 157.906 968.52 160.864C961.868 167.721 954.746 174.108 947.825 180.696C941.106 187.083 934.386 193.402 927.734 199.924C922.896 204.697 918.193 209.605 913.623 214.647C910.936 217.605 911.272 217.941 913.691 221.302C919.671 229.37 925.449 237.639 931.43 245.706C936.402 252.429 941.509 259.017 946.548 265.673C952.663 273.673 958.845 281.539 964.959 289.539C969.192 295.052 973.426 300.564 977.592 306.144C978.398 307.22 979.54 308.094 979.675 309.573C978.667 310.581 977.39 310.178 976.18 310.178Z" fill="#111011"/>
<path d="M870.62 141.367C873.845 142.107 877.07 142.174 880.363 142.107C914.363 141.569 948.295 140.964 982.295 140.426C983.102 140.426 983.841 140.359 984.647 140.292C986.461 140.157 987.469 139.283 987.469 137.334C987.402 135.451 986.394 134.375 984.714 134.174C983.034 133.972 981.287 133.972 979.608 134.039C953.268 134.779 926.861 135.451 900.521 136.459C891.382 136.796 882.244 136.796 873.106 137.939C871.426 138.14 869.679 138.207 868.671 139.754C868.805 140.964 869.679 141.166 870.62 141.367Z" fill="#111011"/>
<path d="M916.311 128.393C917.722 129.065 919.335 128.998 920.88 129.065C929.548 129.401 938.216 129.603 946.884 129.872C946.884 129.939 946.884 129.939 946.884 130.006C955.216 130.006 963.615 130.006 971.947 130.006C973.493 130.006 975.038 130.208 976.516 129.468C978.801 128.325 979.204 125.972 977.323 124.291C976.18 123.283 974.837 123.216 973.358 123.216C969.797 123.216 966.236 123.216 962.675 123.216C949.169 123.283 935.73 123.014 922.291 123.888C920.276 124.023 918.26 124.291 916.378 124.964C915.572 125.233 915.102 125.838 915.034 126.645C914.967 127.586 915.639 128.056 916.311 128.393Z" fill="#111011"/>
<path d="M335.558 49.1307C334.953 47.9206 334.483 46.5088 333.676 45.4332C329.712 39.7859 328.906 33.8698 330.518 27.1469C332.064 20.8946 328.301 16.3231 323.396 13.1633C318.289 9.86908 312.376 8.18836 306.261 8.12113C300.886 8.0539 296.653 6.30595 293.226 2.33944C292.285 1.26378 290.672 -0.349722 289.261 0.860398C287.85 2.07052 289.194 3.75124 290.068 4.96136C293.831 10.2052 298.937 12.9616 305.388 13.1633C309.151 13.2978 312.779 13.8356 316.34 15.1129C325.008 18.2727 327.494 22.5081 325.613 31.3823C325.277 32.9286 325.076 34.4076 325.076 35.9539C325.008 38.7103 325.815 41.1977 327.629 43.2146C330.182 45.971 332.064 49.1307 333.743 52.4922C336.364 52.425 335.02 50.2736 335.558 49.1307Z" fill="#111011"/>
<path d="M228.451 41.5337C229.19 41.6009 229.594 41.1976 229.862 40.5925C230.4 39.248 230.265 37.8362 230.198 36.4244C230.064 30.979 232.617 27.2815 237.522 25.1302C240.613 23.7184 243.704 22.3739 246.862 21.0966C251.431 19.2142 255.933 17.3318 259.091 13.1637C260.301 11.483 262.25 10.878 264.4 10.7435C268.297 10.5419 272.127 10.4074 275.957 9.86957C279.585 9.33175 283.348 8.72672 285.364 4.7603C284.356 3.68466 283.55 3.75187 282.811 3.88633C277.637 5.02919 272.463 5.56702 267.155 6.03761C263.526 6.37375 259.495 6.70988 256.807 9.60066C253.649 13.0293 249.617 14.8444 245.518 16.6595C242.024 18.2058 238.396 19.6176 234.969 21.3655C230.064 23.7857 226.839 27.5504 226.839 33.332C226.839 35.6177 227.175 37.9707 227.376 40.2564C227.511 40.9959 227.712 41.4665 228.451 41.5337Z" fill="#111011"/>
<path d="M328.906 75.8194C328.973 73.1975 328.838 70.5756 330.317 68.2899C331.929 65.7353 332.198 62.9117 332.198 60.0209C331.19 56.1218 328.838 53.1638 325.613 50.8108C321.178 47.5839 317.684 43.483 315.265 38.5082C314.795 37.567 314.997 36.0208 313.451 36.4242C312.242 36.7603 312.174 38.1048 312.443 39.1805C312.712 40.2561 313.115 41.2645 313.518 42.2729C315.534 47.1133 318.759 50.9453 322.858 54.1722C327.495 57.8697 328.099 60.021 326.352 65.8697C326.218 66.3403 326.218 66.8109 326.016 67.2143C324.068 70.9118 324.74 74.7437 325.546 78.5085C325.882 79.9875 326.285 81.5337 326.621 83.0127C329.51 81.332 328.838 78.374 328.906 75.8194Z" fill="#111011"/>
<path d="M257.882 37.9704C261.175 34.2728 265.005 32.7938 269.842 33.1299C270.918 33.1972 271.993 33.1972 273.068 33.1972C273.807 33.1972 274.748 33.4661 275.084 32.5249C275.42 31.5837 275.218 30.7769 274.344 30.0374C273.538 29.3651 272.665 29.2979 271.791 29.0962C268.028 28.8273 264.333 28.8273 260.637 29.0962C258.957 29.4996 257.479 30.508 256.337 31.7854C252.036 36.4913 247.064 40.3234 241.823 43.9537C240.546 44.8277 239.337 45.8361 238.127 46.7773C237.724 47.1135 237.59 47.5168 237.791 47.9874C237.993 48.458 238.396 48.7269 238.866 48.6597C239.74 48.5252 240.681 48.2563 241.554 48.0546C248.139 46.5756 253.514 42.9453 257.882 37.9704Z" fill="#111011"/>
<path d="M238.06 70.576C242.696 67.1474 244.107 60.6935 242.092 55.2481C241.823 54.4413 241.621 53.2312 240.345 53.5674C239.404 53.8363 238.934 54.7102 238.866 55.6514C238.799 57.3321 238.598 59.08 238.732 60.7607C239.001 63.9204 237.59 65.9373 234.969 67.5507C228.922 71.2483 228.048 79.3828 233.424 85.2988C234.297 82.408 235.104 80.1223 234.835 77.5676C234.566 74.6096 235.372 72.4584 238.06 70.576Z" fill="#111011"/>
<path d="M292.487 69.3665C292.419 68.5597 292.083 67.8874 291.21 67.6857C290.068 67.4168 289.396 68.1564 289.127 69.0976C288.589 71.1817 288.186 73.333 287.918 75.4171C287.716 77.2322 288.455 79.1147 290.202 79.5853C294.435 80.7954 293.831 84.0224 293.696 87.0477C293.562 89.6023 292.352 90.2747 290.068 89.3334C289.06 88.9301 288.052 87.1821 287.044 88.9301C286.305 90.2074 287.313 91.552 288.321 92.4932C289.732 93.7706 291.546 93.905 293.091 93.1655C295.846 91.8209 297.997 89.7368 298.131 86.4426C298.265 83.2156 298.668 79.5853 295.309 77.7029C292.89 76.2911 292.016 74.7448 292.487 72.3918C292.487 71.2489 292.554 70.3077 292.487 69.3665Z" fill="#111011"/>
<path d="M254.388 61.3656C260.57 58.811 267.02 57.2647 273.807 57.4664C274.748 57.5336 275.688 57.3992 276.024 56.2563C276.427 54.979 275.688 54.105 274.748 53.5672C272.597 52.2226 270.246 51.5503 267.692 51.752C261.712 52.0882 256.673 54.3739 252.641 58.7437C251.969 59.416 251.566 60.4245 252.305 61.2312C252.775 61.8363 253.582 61.7018 254.388 61.3656Z" fill="#111011"/>
<path d="M317.751 57.1978C318.289 56.1894 317.348 55.5171 316.878 54.7777C314.661 51.5509 311.234 51.3492 307.269 51.3492C303.641 51.282 299.811 52.1559 297.392 55.9877C296.989 56.6599 296.317 57.1977 296.787 58.0717C297.392 59.1473 298.265 58.8784 299.206 58.475C302.633 56.8616 306.194 55.9877 309.957 56.5255C311.771 56.7944 313.518 57.3322 315.332 57.7355C316.206 57.87 317.214 58.2733 317.751 57.1978Z" fill="#111011"/>
<path d="M261.779 145.536C263.728 146.814 265.609 148.225 267.692 149.234C271.791 151.385 276.293 152.528 280.862 153.334C281.601 153.469 282.475 153.469 282.609 152.393C282.676 151.654 282.206 151.251 281.669 150.982C278.443 149.435 275.285 147.822 272.06 146.41C269.103 145.133 266.08 143.99 263.728 143.116C262.048 142.78 260.973 142.713 260.637 143.856C260.301 144.663 261.174 145.133 261.779 145.536Z" fill="#111011"/>
<path d="M292.755 115.686C293.831 115.484 295.242 115.148 295.712 113.199C291.546 110.443 287.111 111.115 282.609 112.19C281.736 112.392 280.594 112.392 280.526 113.602C280.459 114.879 281.467 115.551 282.609 115.686C286.036 116.291 289.396 116.291 292.755 115.686Z" fill="#111011"/>
<path d="M307.941 67.3486C306.396 67.3486 305.253 68.1554 305.052 69.7689C304.85 71.3151 304.85 72.8614 304.917 74.3404C305.119 76.8279 306.732 78.643 308.479 78.2397C310.696 77.7691 311.099 75.8867 311.234 73.937C311.166 73.3992 311.166 72.7269 311.032 72.1219C310.83 71.2479 310.495 70.3739 310.427 69.4327C310.226 67.9537 309.352 67.3486 307.941 67.3486Z" fill="#111011"/>
<path d="M228.922 103.72C227.847 103.249 226.839 103.316 226.1 104.459C225.495 105.467 225.965 106.14 226.57 106.946C228.72 109.77 231.341 111.518 235.507 111.518C234.633 107.282 232.214 105.064 228.922 103.72Z" fill="#111011"/>
<path d="M262.115 74.274C262.115 77.6355 263.056 79.249 264.937 79.249C266.684 79.1818 267.558 77.4338 267.558 74.1395C267.558 70.778 266.55 69.03 264.803 69.1644C262.989 69.2317 262.115 70.9797 262.115 74.274Z" fill="#111011"/>
<path d="M101.792 384.533C98.7007 382.18 96.349 379.155 93.7956 376.331C86.0012 367.861 84.3885 358.247 87.681 347.49C88.9577 343.188 90.8391 339.154 92.5861 335.053C97.4913 323.893 103.27 313.137 108.578 302.246C112.879 293.371 117.851 284.833 122.218 275.959C128.199 263.791 133.709 251.421 139.89 239.32C146.072 227.218 152.12 215.117 159.175 203.487C162.131 198.646 165.155 193.739 165.961 187.89C163.677 187.285 162.871 188.831 162.266 190.512C160.989 194.075 158.705 196.966 156.689 200.058C154.673 203.151 152.59 206.243 150.843 209.537C146.274 217.739 141.234 225.739 137.135 234.277C134.179 240.395 131.021 246.379 127.93 252.496C123.764 260.766 119.732 269.102 115.499 277.371C112.677 282.884 109.586 288.262 106.831 293.775C102.329 302.783 97.8944 311.792 93.6612 320.868C89.3608 329.944 84.7245 338.885 82.4399 348.768C78.9458 364.096 83.3134 374.18 96.2818 383.659C97.4913 384.533 98.9695 385.138 100.381 385.743C100.515 385.811 100.649 385.811 100.717 385.878C100.851 385.878 100.918 385.878 100.985 385.878C101.053 385.878 101.12 385.811 101.187 385.811C101.523 385.542 101.657 385.071 101.792 384.533Z" fill="#111011"/>
<path d="M182.76 397.71C181.416 397.307 180.072 396.904 178.728 396.567C172.613 395.156 166.163 394.685 160.25 392.87C143.452 387.693 126.116 386.214 108.914 383.592C107.436 383.391 105.487 382.584 104.211 384.399C104.95 386.214 106.495 386.886 108.175 387.155C112.878 388.029 117.582 388.903 122.286 389.643C132.365 391.189 142.376 392.735 152.254 395.29C160.922 397.509 169.657 399.391 178.661 399.055C178.862 399.055 178.997 399.055 179.198 399.055C179.602 399.055 179.938 399.122 180.341 399.122C181.349 399.055 182.222 398.853 182.76 397.71Z" fill="#111011"/>
<path d="M378.159 286.581C379.57 286.379 380.242 285.304 380.309 283.959C380.376 282.883 380.309 281.808 380.376 280.732C380.712 275.354 380.645 269.841 381.585 264.53C384.542 248.53 386.692 232.395 391.799 216.865C392.403 215.117 392.672 213.302 392.202 210.479C386.356 217.336 383.198 224.529 381.317 232.193C378.494 243.622 376.21 255.185 375 266.883C374.396 272.732 373.993 278.648 375.672 284.43C376.076 285.707 376.546 286.783 378.159 286.581Z" fill="#111011"/>
<path d="M284.692 218.682C284.558 218.345 284.424 217.673 283.819 217.27C283.147 216.799 282.072 216.799 281.467 217.337C280.862 217.875 280.997 218.749 280.862 220.497C280.728 221.841 281.064 230.379 281.131 231.119C281.87 236.497 282.206 248.329 283.752 248.867C284.961 248.195 285.297 246.985 285.364 245.775C286.036 239.186 286.708 232.598 286.238 225.942C286.103 223.388 285.633 220.967 284.692 218.682Z" fill="#111011"/>
<path d="M262.72 26.3397C263.862 26.407 273.874 27.5498 277.839 28.2892C279.25 28.5581 279.653 28.2892 280.593 28.0875C281.669 27.8186 282.072 26.5414 281.4 25.6675C280.728 24.7936 266.483 21.903 262.518 22.7769C260.368 23.1803 260.57 26.2053 262.72 26.3397Z" fill="#111011"/>
<path d="M315.601 28.2222C313.048 26.6087 310.091 26.3398 307.74 24.6591C306.261 23.5835 304.514 22.844 302.834 22.1045C298.4 20.2893 295.107 21.5667 292.89 25.8692C292.621 26.3398 292.89 28.3566 295.174 27.0121C297.325 25.802 297.459 25.1969 298.467 25.1969C299.34 25.1969 300.214 25.802 301.759 26.9448C303.708 28.4238 305.791 29.7012 308.076 30.5079C311.099 31.5835 313.72 31.5835 315.803 29.1633C316.004 28.9617 315.937 28.4238 315.601 28.2222Z" fill="#111011"/>
<path d="M283.752 15.3137C281.198 18.339 281.4 22.8433 283.752 26.003C284.087 26.4064 284.491 27.0115 285.028 27.751C286.103 29.1628 286.103 29.23 286.372 29.4989C287.514 30.5074 289.53 30.9107 290.269 30.1712C291.008 29.4317 290.74 28.2888 290.74 28.2888C290.74 28.2888 289.329 26.0031 288.522 24.8602C287.313 23.2467 286.641 22.3055 286.574 21.0954C286.506 19.9525 287.044 18.8096 288.119 16.9944C289.06 15.381 291.008 14.3053 291.277 12.0195C287.716 12.2212 285.364 13.4313 283.752 15.3137Z" fill="#111011"/>
<path d="M203.321 334.583C200.969 321.809 199.625 308.834 195.93 296.33C194.451 291.288 194.115 285.977 191.965 280.464C191.226 281.943 190.689 282.75 190.42 283.624C187.665 292.027 183.297 299.758 179.333 307.624C175.637 314.952 172.009 322.28 168.38 329.675C167.036 332.364 165.894 335.188 165.625 338.28C180.408 341.978 194.451 347.087 208.226 353.541C205.135 347.423 204.463 340.902 203.321 334.583Z" fill="#698DBE"/>
<path d="M585.912 202.855C586.45 202.519 586.853 202.385 587.054 202.385C587.995 202.385 588.734 203.259 589.272 204.939C589.809 206.687 590.683 214.083 591.96 226.99C592.766 235.394 593.371 240.234 593.707 241.445C593.908 242.05 594.311 244.806 594.782 249.848C595.185 253.613 595.386 255.832 595.386 256.504C595.386 257.042 595.252 257.512 594.916 257.916C594.446 258.386 594.043 258.588 593.707 258.588C593.303 258.588 592.9 258.319 592.564 257.848C592.228 257.176 591.758 255.899 591.221 253.815C590.683 251.798 590.347 249.848 590.145 248.033C589.944 246.016 589.742 244.201 589.541 242.789L589.339 240.84L586.248 240.772L583.224 240.638L582.754 243.596C581.612 251.058 580.738 255.428 579.999 256.705C579.529 257.714 578.857 258.185 578.05 258.185C577.244 258.185 576.707 257.714 576.572 256.705V256.168C576.572 254.958 576.774 252.941 577.244 249.983C577.379 248.974 577.715 246.823 578.252 243.461C578.79 240.1 579.193 237.68 579.394 236.201C579.596 234.587 579.865 233.108 580.066 231.831C580.268 230.554 580.47 229.68 580.537 229.142C580.604 228.604 580.738 227.999 580.873 227.259C581.007 226.52 581.074 225.579 581.209 224.436C581.276 222.621 581.948 218.654 583.157 212.536C584.031 208.301 584.568 205.679 584.837 204.738C585.173 203.662 585.509 203.057 585.912 202.855ZM587.39 225.848C587.054 220.469 586.786 217.78 586.45 217.78C586.382 217.78 586.383 217.847 586.383 217.915C586.383 217.982 586.315 218.183 586.248 218.587C586.181 218.99 586.047 219.595 585.912 220.402C585.778 221.209 585.643 221.948 585.576 222.688C585.375 224.167 585.106 226.116 584.904 228.537C584.703 230.957 584.434 232.839 584.165 234.184L583.896 236.201H586.383C587.995 236.201 588.801 236.134 588.801 235.999L588.264 233.781C587.928 232.57 587.659 229.881 587.39 225.848Z" fill="black"/>
<path d="M620.651 203.796C620.92 203.326 621.256 203.057 621.659 203.057C622.13 203.057 622.465 203.393 622.734 204.132C623.003 204.872 623.272 206.821 623.473 210.048C623.675 213.275 623.809 216.301 623.809 219.057C623.809 219.326 623.809 219.729 623.742 220.2C623.742 220.671 623.675 221.074 623.675 221.276C623.608 222.015 623.608 223.024 623.608 224.301C623.608 227.192 623.944 229.007 624.549 229.612C624.884 229.948 625.892 230.217 627.707 230.352L630.394 230.486L630.596 228.2C630.663 227.326 630.865 223.898 631.201 217.847C631.537 211.796 631.738 208.3 631.873 207.292C632.209 204.603 632.881 203.258 633.687 203.258C634.023 203.258 634.292 203.46 634.628 203.863C634.964 204.2 635.098 207.494 635.098 213.679C635.098 225.444 634.695 237.545 633.956 249.982C633.754 252.604 633.552 254.419 633.217 255.361C632.948 256.302 632.477 256.772 631.805 256.772C631.133 256.772 630.73 256.436 630.596 255.764C630.394 255.092 630.327 253.411 630.327 250.655C630.327 250.251 630.327 249.444 630.394 248.167C630.394 246.89 630.462 245.881 630.462 245.007L630.529 234.318L627.035 234.184C625.019 234.116 623.608 233.847 622.734 233.444C621.861 233.041 621.122 232.234 620.45 230.957C620.114 230.284 619.912 229.545 619.845 228.671C619.778 227.864 619.643 226.049 619.576 223.292V220.738C619.576 217.04 619.711 213.41 619.912 209.712C620.181 206.284 620.382 204.267 620.651 203.796Z" fill="black"/>
<path d="M649.612 201.644C650.821 201.51 652.165 201.442 653.778 201.442C657.675 201.442 660.027 201.644 660.833 202.115C661.303 202.451 661.572 202.921 661.572 203.594C661.572 204.4 661.236 205.006 660.631 205.409C660.027 205.879 659.287 206.081 658.414 206.081C657.742 206.081 657.204 206.081 656.801 206.014L653.912 205.947L653.643 218.586C653.509 224.703 653.374 232.973 653.307 243.393C653.24 248.704 653.173 252.065 653.106 253.477C653.038 254.956 652.837 255.83 652.568 256.166C652.165 256.57 651.627 256.771 651.09 256.771C650.351 256.771 649.813 256.503 649.41 255.897C648.738 254.822 648.402 249.981 648.402 241.376C648.402 232.233 648.738 223.426 649.477 214.955C649.813 210.518 650.015 207.964 650.015 207.426V206.148H646.924C644.841 206.148 643.564 205.947 643.161 205.476C642.691 205.005 642.623 204.468 642.892 203.93C643.295 202.921 645.513 202.182 649.612 201.644Z" fill="black"/>
<path d="M678.572 202.316C679.244 202.114 679.782 201.979 680.185 201.979C680.655 201.979 681.125 202.114 681.529 202.316C682.537 202.652 683.544 203.458 684.485 204.736C685.493 206.013 686.165 207.358 686.635 208.837C687.24 210.921 687.576 214.618 687.576 219.997C687.576 222.82 687.442 226.854 687.24 232.098C686.837 239.627 686.165 245.005 685.359 248.165C683.948 253.611 681.999 256.972 679.513 258.249C678.707 258.653 677.9 258.854 677.094 258.854C675.616 258.854 674.205 258.048 673.062 256.434C671.853 254.821 670.979 252.602 670.375 249.711C669.501 245.812 669.098 241.241 669.098 235.93C669.098 232.367 669.299 228.333 669.703 223.829C670.173 218.652 671.047 213.946 672.39 209.711C673.734 205.408 675.011 203.257 676.153 203.257C676.758 203.257 677.094 203.122 677.228 202.921C677.43 202.786 677.9 202.585 678.572 202.316ZM681.193 206.887C680.588 206.215 680.118 205.879 679.714 206.013C678.303 206.148 677.43 206.282 677.161 206.417C676.892 206.551 676.624 206.954 676.422 207.627C674.07 216.568 672.861 226.047 672.861 235.93C672.861 244.737 673.869 250.72 675.817 253.947C676.288 254.754 676.892 255.09 677.43 254.888C678.035 254.686 678.572 254.417 678.975 253.947C679.379 253.543 679.849 252.804 680.252 251.796C682.604 246.283 683.88 236.468 683.948 222.35V220.602C683.948 216.097 683.746 213.005 683.41 211.324C683.074 209.643 682.335 208.164 681.193 206.887Z" fill="black"/>
<path d="M717.276 202.653C717.611 202.586 718.216 202.586 718.955 202.586C721.038 202.586 722.382 202.788 723.054 203.124C723.659 203.46 724.331 204.132 725.137 205.275C725.943 206.351 726.481 207.359 726.75 208.233C727.086 209.376 727.355 213.074 727.489 219.326C727.556 220.939 727.556 222.754 727.556 224.771C727.556 227.393 727.355 229.074 726.951 229.881L726.212 231.225L727.422 232.503C728.497 233.713 729.37 235.595 730.042 238.15C730.714 240.704 731.05 243.326 731.05 246.083C731.05 248.974 730.714 251.461 729.975 253.478C729.034 255.965 727.556 257.78 725.473 258.789C723.256 259.865 720.77 260.402 717.813 260.402C716.066 260.402 714.789 260.133 713.916 259.663C713.042 259.125 712.505 258.52 712.236 257.848C711.967 257.175 711.833 255.629 711.833 253.343V251.595C711.9 241.646 712.505 228.334 713.513 211.863C713.781 207.426 714.05 204.804 714.386 203.998C714.655 203.191 715.596 202.788 717.141 202.72H717.276V202.653ZM723.256 234.519C722.449 234.116 721.979 233.914 721.777 233.914C721.576 233.914 721.106 234.049 720.366 234.251C720.165 234.318 719.829 234.385 719.359 234.452C718.888 234.519 718.552 234.587 718.351 234.654C717.88 234.721 717.611 234.923 717.477 235.259C717.343 235.528 717.275 236.267 717.141 237.477C717.074 238.351 716.94 241.78 716.738 247.763L716.469 255.562L719.291 255.36C721.509 255.226 722.987 254.822 723.928 254.217C724.801 253.612 725.54 252.335 726.011 250.453C726.347 249.31 726.481 247.831 726.481 246.015C726.481 244.268 726.347 242.587 726.011 240.839C725.675 238.822 725.339 237.41 724.936 236.536C724.532 235.662 723.995 234.99 723.256 234.519ZM722.382 208.636C721.912 207.695 721.509 207.09 721.038 206.754C720.635 206.418 719.896 206.216 718.821 206.216H717.477C717.41 208.905 717.41 212.939 717.41 218.25C717.41 223.628 717.41 227.595 717.343 230.284L718.485 230.082C719.426 229.881 720.299 229.477 721.307 229.007C722.248 228.536 722.853 228.065 722.987 227.662C723.189 227.326 723.323 225.645 723.323 222.62C723.323 221.007 723.323 219.662 723.256 218.654C723.189 214.822 723.054 212.401 722.987 211.326C722.92 210.25 722.718 209.376 722.382 208.636Z" fill="black"/>
<path d="M744.153 202.787C745.161 202.586 745.967 202.451 746.572 202.451C748.319 202.451 749.864 203.258 751.275 204.804C752.283 205.947 752.955 207.157 753.291 208.502C753.627 209.846 753.829 211.863 753.829 214.62C753.829 217.712 753.56 220.132 753.022 221.88L752.216 224.569L753.493 226.721C755.374 229.88 756.315 233.376 756.315 237.276C756.315 238.62 756.18 240.301 755.979 242.318C755.509 246.217 754.971 249.041 754.299 250.856C753.627 252.604 752.619 254.083 751.343 255.226C749.394 256.906 746.975 257.78 744.086 257.78C743.011 257.78 741.935 257.579 740.995 257.242C739.248 256.503 738.307 255.36 738.307 253.679C738.307 253.141 738.374 252.671 738.576 252.268C738.777 251.797 738.979 251.461 739.181 251.326C739.382 251.192 739.785 251.125 740.323 251.125C741.129 251.125 741.667 251.461 742.003 252.066C742.339 252.805 742.943 253.141 743.884 253.141C744.422 253.141 745.026 253.074 745.698 252.873C747.714 252.402 749.058 251.192 749.797 249.309C750.133 248.503 750.469 246.688 750.872 243.864C751.208 241.444 751.343 239.292 751.343 237.276C751.343 234.116 750.671 231.359 749.394 229.006L748.386 227.191L745.967 226.922C742.809 226.586 741.196 225.578 741.129 223.897C741.129 222.687 742.54 222.082 745.43 222.082H748.117L748.588 220.67C748.991 219.124 749.192 217.376 749.192 215.359C749.192 213.342 748.991 211.527 748.52 209.981C748.117 208.435 747.445 207.561 746.572 207.359C746.236 207.292 745.9 207.224 745.766 207.224C744.623 207.224 743.548 208.166 742.54 210.115C741.6 211.729 740.86 212.603 740.256 212.603C740.054 212.603 739.852 212.468 739.517 212.267C739.181 211.998 738.979 211.393 738.979 210.451C738.979 209.241 739.248 208.031 739.852 206.754C741.062 204.401 742.406 203.191 744.153 202.787Z" fill="black"/>
<path d="M772.979 202.855C773.516 202.519 773.92 202.385 774.121 202.385C775.062 202.385 775.801 203.259 776.339 204.939C776.876 206.687 777.75 214.083 779.026 226.99C779.833 235.394 780.437 240.234 780.773 241.445C780.975 242.05 781.378 244.806 781.848 249.848C782.252 253.613 782.453 255.832 782.453 256.504C782.453 257.042 782.319 257.512 781.983 257.916C781.512 258.386 781.109 258.588 780.773 258.588C780.37 258.588 779.967 258.319 779.631 257.848C779.295 257.176 778.825 255.899 778.287 253.815C777.75 251.798 777.414 249.848 777.212 248.033C777.01 246.016 776.809 244.201 776.607 242.789L776.406 240.84L773.315 240.772L770.291 240.638L769.821 243.596C768.678 251.058 767.805 255.428 767.066 256.705C766.596 257.714 765.924 258.185 765.117 258.185C764.311 258.185 763.773 257.714 763.639 256.705V256.168C763.639 254.958 763.841 252.941 764.311 249.983C764.445 248.974 764.781 246.823 765.319 243.461C765.856 240.1 766.26 237.68 766.461 236.201C766.663 234.587 766.931 233.108 767.133 231.831C767.335 230.554 767.536 229.68 767.603 229.142C767.671 228.604 767.805 227.999 767.939 227.259C768.074 226.52 768.141 225.579 768.275 224.436C768.343 222.621 769.014 218.654 770.224 212.536C771.097 208.301 771.635 205.679 771.904 204.738C772.24 203.662 772.576 203.057 772.979 202.855ZM774.39 225.848C774.054 220.469 773.785 217.78 773.449 217.78C773.382 217.78 773.382 217.847 773.382 217.915C773.382 217.982 773.315 218.183 773.248 218.587C773.18 218.99 773.046 219.595 772.912 220.402C772.777 221.209 772.643 221.948 772.576 222.688C772.374 224.167 772.105 226.116 771.904 228.537C771.702 230.957 771.433 232.839 771.165 234.184L770.896 236.201H773.382C774.995 236.201 775.801 236.134 775.801 235.999L775.263 233.781C774.995 232.57 774.659 229.881 774.39 225.848Z" fill="black"/>
<path d="M791.457 203.662C791.659 203.258 792.062 203.057 792.666 203.057C793.07 203.057 793.54 203.191 793.943 203.393C794.548 203.729 795.421 205.275 796.429 208.032C797.437 210.788 798.378 213.41 799.184 215.897C799.991 218.452 800.461 219.662 800.595 219.662C800.864 219.662 802.275 216.57 804.896 210.452C806.912 205.679 808.591 203.191 809.868 203.057H810.137C810.809 203.057 811.212 204.2 811.414 206.485C811.548 208.771 811.75 215.158 811.951 225.713C812.018 232.57 812.085 237.007 812.085 239.091C812.085 250.184 811.817 256.302 811.212 257.445C810.943 257.915 810.473 258.184 809.868 258.184C809.465 258.184 809.129 258.05 808.86 257.781C808.591 257.445 808.39 253.209 808.255 245.142C808.188 243.663 808.121 240.234 808.054 234.789C807.987 229.343 807.919 225.578 807.852 223.629L807.651 214.284L805.366 218.721C803.888 221.746 802.813 223.696 802.275 224.503C801.67 225.444 801.334 226.049 801.2 226.385C801.066 226.788 800.595 226.99 799.856 226.99C799.319 226.99 798.915 226.856 798.647 226.587C798.445 226.385 797.84 224.704 797.034 221.612C796.026 218.25 795.421 216.57 795.287 216.57C795.153 216.57 795.018 217.511 794.951 219.326C794.481 227.057 794.01 236.402 793.674 247.293C793.406 253.344 793.204 256.571 793.137 256.974C792.935 257.915 792.398 258.386 791.524 258.386C790.785 258.386 790.247 258.05 789.979 257.31C789.71 256.638 789.576 254.016 789.576 249.377C789.576 244.738 789.71 240.032 789.979 235.259C790.516 224.435 790.852 217.578 790.919 214.687C791.054 207.628 791.323 203.998 791.457 203.662Z" fill="black"/>
<path d="M823.172 202.988C826.263 202.921 828.077 202.854 828.548 202.854C830.16 202.854 831.303 202.921 831.907 203.122C832.512 203.324 832.983 203.66 833.251 204.198C833.453 204.601 833.319 205.139 832.781 205.677C831.908 206.618 829.825 207.223 826.532 207.492L823.912 207.694V210.45C823.912 211.795 823.979 215.156 824.18 220.602L824.382 228.131H827.406C830.832 228.131 832.579 228.736 832.579 230.014C832.579 230.484 832.445 230.888 832.109 231.224C831.37 232.232 829.623 232.77 826.868 232.77L824.247 232.837V237.745C824.247 240.77 824.315 244.065 824.516 247.695L824.718 252.737L827.473 252.535C827.607 252.535 827.809 252.535 828.145 252.468C828.413 252.468 828.615 252.401 828.749 252.401C830.9 252.401 831.975 253.006 831.975 254.283C831.975 254.955 831.706 255.493 831.101 255.897C830.496 256.3 829.153 256.771 827.002 257.308C824.852 257.846 823.307 258.115 822.299 258.115H821.896C820.821 257.914 820.149 257.107 819.947 255.695C819.746 254.283 819.544 249.846 819.342 242.317C819.275 237.006 819.208 232.837 819.208 229.812C819.208 212.938 819.544 204.131 820.149 203.324C820.283 203.324 821.358 203.122 823.172 202.988Z" fill="black"/>
<path d="M841.113 203.46C841.315 203.191 841.718 203.057 842.256 203.057C842.793 203.057 843.129 203.191 843.264 203.393C843.801 204.267 844.204 209.914 844.406 220.267L844.675 229.074H849.244L853.88 229.007L853.947 227.326C853.947 227.057 854.014 226.318 854.082 225.175C854.149 224.032 854.216 222.486 854.283 220.469C854.35 218.519 854.418 216.704 854.552 215.158C854.821 208.3 855.157 204.603 855.56 204.2C855.761 203.998 856.03 203.863 856.299 203.863C856.769 203.863 857.24 204.468 857.576 205.611C857.912 206.821 858.113 219.259 858.113 243.057C858.113 251.931 858.046 256.637 857.912 257.175C857.71 257.847 857.172 258.184 856.433 258.184C856.232 258.184 855.896 258.116 855.56 257.915C854.955 257.444 854.485 252.133 854.216 241.847L854.014 232.368H849.445C846.422 232.368 844.876 232.502 844.809 232.704V233.578C844.809 234.385 844.876 237.545 845.011 242.99C845.145 248.435 845.212 252.402 845.212 254.822C845.212 257.646 845.145 259.192 845.011 259.528C844.809 259.999 844.473 260.268 844.003 260.268C843.398 260.268 842.928 259.931 842.659 259.259C842.188 258.116 841.651 253.276 841.113 244.805C840.912 242.049 840.845 235.46 840.845 224.973C840.71 211.057 840.845 203.863 841.113 203.46Z" fill="black"/>
<path d="M870.409 203.796C870.947 203.527 871.955 203.393 873.433 203.393C874.508 203.393 875.18 203.46 875.583 203.594C875.986 203.729 876.39 203.998 876.927 204.468C879.077 206.485 880.152 209.712 880.152 214.216C880.152 214.889 880.152 215.426 880.085 215.763C879.884 217.914 879.212 220.536 878.137 223.763C876.994 227.057 876.255 229.41 875.986 230.755C875.718 232.099 875.382 234.25 875.113 237.208C874.911 239.763 874.575 241.511 874.239 242.452C873.903 243.393 873.433 243.864 872.761 243.864C872.425 243.864 871.955 243.595 871.485 243.125C871.149 242.788 870.947 242.318 870.88 241.713C870.813 241.108 870.745 239.763 870.745 237.746C870.813 233.04 871.619 228.738 873.164 224.838C874.844 220.67 875.852 217.511 876.121 215.494C876.188 215.292 876.188 214.889 876.188 214.418C876.188 213.208 875.986 211.863 875.65 210.452C875.314 209.04 874.911 208.166 874.508 207.83C874.172 207.561 873.702 207.426 873.299 207.426C871.955 207.426 870.947 208.099 870.275 209.443C869.67 210.653 869.402 211.594 869.402 212.267C869.402 212.603 869.469 213.141 869.603 213.746C869.67 214.082 869.737 214.62 869.737 215.158C869.737 216.435 869.401 217.04 868.662 217.04C868.192 217.04 867.654 216.704 867.117 216.099C866.042 214.956 865.504 213.477 865.504 211.594C865.504 210.855 865.639 210.048 865.84 209.107C866.042 208.435 866.714 207.494 867.789 206.216C868.73 205.073 869.67 204.267 870.409 203.796ZM871.686 251.394C872.425 251.058 872.828 250.923 872.963 250.923C873.164 250.923 873.433 251.058 873.903 251.259C874.777 251.73 875.18 252.537 875.18 253.814C875.18 254.755 874.911 255.495 874.374 256.1C873.836 256.705 873.164 256.974 872.492 256.974C871.753 256.974 871.148 256.637 870.678 256.032C870.208 255.427 870.006 254.822 870.006 254.217C869.939 252.94 870.544 251.999 871.686 251.394Z" fill="black"/>
</svg>
